<svg xmlns="http://www.w3.org/2000/svg" xmlns:xlink="http://www.w3.org/1999/xlink" width="600" zoomAndPan="magnify" viewBox="0 0 450 149.999998" height="200" preserveAspectRatio="xMidYMid meet" version="1.0"><path fill="#000000" d="M 54.597656 49.839844 C 48.144531 52.847656 47.179688 54.785156 52.015625 55.320312 C 54.8125 55.644531 54.917969 55.859375 54.917969 62.523438 L 54.917969 69.511719 L 52.015625 68.328125 C 44.8125 65.640625 35.246094 70.585938 30.839844 79.292969 C 26 89.078125 27.503906 101.332031 34.277344 107.460938 C 39.222656 111.972656 49.4375 113.050781 53.089844 109.394531 C 53.84375 108.640625 54.703125 108.964844 55.886719 110.363281 C 57.605469 112.296875 57.820312 112.296875 64.378906 109.609375 C 71.472656 106.597656 72.976562 104.234375 68.140625 103.695312 L 65.128906 103.375 L 64.59375 75.425781 C 64.164062 51.667969 63.839844 47.472656 62.441406 47.257812 C 61.582031 47.152344 58.035156 48.335938 54.597656 49.839844 Z M 52.230469 75.425781 C 54.8125 77.898438 54.917969 78.648438 54.917969 90.257812 C 54.917969 102.300781 54.917969 102.515625 52.230469 103.695312 C 48.253906 105.523438 46.855469 105.308594 43.308594 102.300781 C 36.75 96.816406 36.105469 81.765625 42.019531 75.746094 C 45.78125 72.089844 48.789062 71.875 52.230469 75.425781 Z M 52.230469 75.425781 " fill-opacity="1" fill-rule="nonzero"/><path fill="#000000" d="M 97.8125 49.945312 C 91.683594 52.847656 90.394531 55.535156 95.125 55.535156 C 97.273438 55.535156 97.703125 56.289062 98.347656 60.480469 C 99.207031 66.933594 99.207031 98.320312 98.347656 102.730469 C 97.8125 105.09375 96.84375 106.277344 95.125 106.707031 C 93.726562 107.027344 92.542969 107.996094 92.542969 108.855469 C 92.542969 110.039062 94.800781 110.363281 103.292969 110.363281 C 112.109375 110.363281 114.042969 110.039062 114.042969 108.75 C 114.042969 107.890625 113.398438 107.136719 112.539062 107.136719 C 108.5625 107.136719 107.59375 104.125 107.59375 92.085938 C 107.59375 80.800781 107.699219 80.371094 110.386719 78.21875 C 114.582031 74.886719 117.160156 74.457031 119.527344 76.605469 C 121.351562 78.21875 121.566406 79.9375 121.566406 92.300781 L 121.566406 106.0625 L 118.34375 106.8125 C 111.785156 108.105469 115.761719 109.824219 125.867188 110.148438 C 136.726562 110.46875 139.84375 109.394531 134.789062 106.921875 L 131.78125 105.523438 L 131.242188 90.472656 C 130.597656 73.703125 129.738281 71.230469 124.148438 68.867188 C 119.742188 67.039062 115.871094 67.792969 111.140625 71.339844 L 107.699219 73.917969 L 107.378906 60.695312 C 107.054688 45.433594 107.054688 45.539062 97.8125 49.945312 Z M 97.8125 49.945312 " fill-opacity="1" fill-rule="nonzero"/><path fill="#000000" d="M 354.84375 49.625 C 348.5 52.3125 347.316406 54.460938 351.617188 55.535156 L 354.304688 56.183594 L 354.628906 80.691406 L 354.84375 105.203125 L 351.617188 106.382812 C 349.898438 107.027344 348.394531 108.210938 348.394531 109.070312 C 348.394531 111.007812 370 110.46875 370.753906 108.425781 C 370.96875 107.675781 370.214844 107.136719 369.035156 107.136719 C 365.59375 107.136719 364.410156 104.558594 364.734375 97.890625 L 365.054688 91.765625 L 370.214844 98.320312 C 375.160156 104.664062 376.34375 107.136719 374.195312 107.136719 C 373.65625 107.136719 373.117188 107.890625 373.117188 108.75 C 373.117188 110.039062 375.054688 110.363281 383.867188 110.363281 C 392.46875 110.363281 394.617188 110.039062 394.617188 108.855469 C 394.617188 107.996094 393.113281 107.027344 391.394531 106.597656 C 388.921875 106.0625 386.019531 103.265625 379.890625 95.632812 L 371.613281 85.421875 L 376.34375 81.121094 C 383.007812 75.316406 387.199219 72.738281 390.101562 72.738281 C 391.929688 72.738281 392.574219 72.199219 392.253906 70.800781 C 391.714844 68.113281 374.515625 67.46875 373.441406 70.15625 C 373.117188 71.125 373.441406 72.308594 374.300781 72.84375 C 375.484375 73.488281 374.730469 74.777344 370.96875 78.648438 C 368.386719 81.335938 365.808594 83.488281 365.378906 83.488281 C 364.949219 83.488281 364.410156 75.425781 364.304688 65.535156 C 363.980469 45 364.304688 45.648438 354.84375 49.625 Z M 354.84375 49.625 " fill-opacity="1" fill-rule="nonzero"/><path fill="#000000" d="M 172.09375 68.4375 C 164.785156 70.265625 160.054688 78.863281 164.136719 82.839844 C 167.472656 86.175781 172.09375 83.488281 172.09375 78.21875 C 172.09375 74.671875 173.8125 72.738281 176.929688 72.738281 C 180.046875 72.738281 182.84375 75.960938 182.84375 79.402344 C 182.84375 81.765625 181.769531 82.734375 174.78125 85.960938 C 163.921875 91.226562 161.34375 93.808594 161.34375 100.148438 C 161.34375 104.234375 161.878906 105.738281 164.460938 108.320312 C 168.332031 112.1875 172.738281 112.402344 178.652344 109.070312 L 182.84375 106.707031 L 184.5625 109.070312 C 185.421875 110.363281 187.359375 111.4375 188.753906 111.4375 C 191.980469 111.4375 198.96875 105.523438 198.96875 102.730469 C 198.96875 100.578125 196.386719 99.933594 195.207031 101.761719 C 193.269531 104.878906 192.519531 101.652344 192.519531 90.042969 C 192.519531 75.960938 191.765625 72.628906 188.003906 70.15625 C 184.777344 68.113281 176.824219 67.253906 172.09375 68.4375 Z M 180.585938 101.976562 C 175.855469 105.847656 171.019531 103.804688 171.019531 97.890625 C 171.019531 94.128906 172.09375 92.945312 178.113281 89.9375 L 182.304688 88 L 182.628906 94.023438 C 182.949219 99.183594 182.628906 100.472656 180.585938 101.976562 Z M 180.585938 101.976562 " fill-opacity="1" fill-rule="nonzero"/><path fill="#000000" d="M 226.917969 69.941406 C 220.46875 72.523438 218.316406 75.960938 222.941406 75.960938 C 224.445312 75.960938 225.949219 76.714844 226.273438 77.683594 C 226.597656 78.648438 226.917969 84.882812 226.917969 91.550781 C 226.917969 104.125 225.949219 107.136719 221.972656 107.136719 C 221.113281 107.136719 220.46875 107.890625 220.46875 108.75 C 220.46875 110.148438 223.585938 110.253906 242.722656 110.039062 C 259.277344 109.933594 264.972656 109.5 265.402344 108.425781 C 265.617188 107.78125 265.082031 107.136719 264.222656 107.136719 C 260.027344 107.136719 259.167969 104.234375 259.167969 90.042969 C 259.167969 77.574219 258.953125 75.960938 256.804688 72.738281 C 253.253906 67.578125 248.742188 66.609375 242.183594 69.726562 C 239.386719 71.015625 236.808594 72.308594 236.378906 72.523438 C 236.054688 72.738281 235.519531 71.769531 235.304688 70.480469 C 234.875 67.148438 233.691406 67.148438 226.917969 69.941406 Z M 247.773438 76.605469 C 249.171875 77.898438 249.492188 80.90625 249.492188 92.085938 L 249.492188 105.847656 L 246.269531 107.027344 C 244.117188 107.78125 242.074219 107.78125 239.925781 107.027344 C 236.164062 105.738281 235.519531 103.160156 235.519531 89.9375 C 235.519531 79.9375 236.269531 78.433594 241.96875 76.070312 C 245.625 74.671875 245.839844 74.671875 247.773438 76.605469 Z M 247.773438 76.605469 " fill-opacity="1" fill-rule="nonzero"/><path fill="#000000" d="M 299.804688 68.652344 C 295.179688 69.835938 290.34375 74.996094 290.34375 78.542969 C 290.34375 81.015625 293.351562 84.5625 295.503906 84.5625 C 297.652344 84.5625 300.019531 81.230469 300.019531 78.21875 C 300.019531 74.671875 301.738281 72.738281 304.964844 72.738281 C 308.296875 72.738281 310.769531 75.53125 310.769531 79.1875 C 310.769531 81.980469 309.910156 82.625 301.628906 86.605469 C 291.632812 91.441406 289.269531 94.34375 289.269531 101.222656 C 289.269531 104.125 290.128906 105.953125 292.386719 108.320312 C 296.253906 112.1875 300.664062 112.402344 306.574219 109.070312 L 310.769531 106.707031 L 312.488281 109.070312 C 314.746094 112.402344 318.617188 111.972656 323.128906 108.105469 C 326.894531 104.773438 328.503906 99.828125 325.28125 101.117188 C 324.421875 101.4375 322.914062 102.085938 322.054688 102.40625 C 320.660156 102.945312 320.441406 101.222656 320.441406 90.152344 C 320.441406 75.960938 319.691406 72.628906 315.820312 70.15625 C 312.488281 67.898438 304.75 67.148438 299.804688 68.652344 Z M 308.511719 101.976562 C 303.996094 105.738281 298.941406 103.804688 298.941406 98.535156 C 298.941406 94.882812 300.664062 92.730469 305.929688 90.152344 L 310.230469 88 L 310.554688 94.023438 C 310.875 99.183594 310.554688 100.472656 308.511719 101.976562 Z M 308.511719 101.976562 " fill-opacity="1" fill-rule="nonzero"/><path fill="#000000" d="M 399.132812 70.050781 C 399.132812 71.769531 399.347656 72.414062 399.671875 71.339844 C 399.886719 70.371094 399.886719 68.867188 399.671875 68.113281 C 399.347656 67.46875 399.132812 68.222656 399.132812 70.050781 Z M 399.132812 70.050781 " fill-opacity="1" fill-rule="nonzero"/><path fill="#000000" d="M 403.21875 67.898438 C 403.21875 68.4375 403.757812 69.726562 404.292969 70.585938 C 404.832031 71.445312 405.367188 71.660156 405.367188 71.125 C 405.367188 70.480469 404.832031 69.296875 404.292969 68.4375 C 403.757812 67.578125 403.21875 67.253906 403.21875 67.898438 Z M 403.21875 67.898438 " fill-opacity="1" fill-rule="nonzero"/><path fill="#000000" d="M 406.445312 69.402344 C 406.445312 70.585938 406.875 71.875 407.519531 72.199219 C 408.164062 72.628906 408.484375 71.660156 408.378906 70.15625 C 408.054688 66.933594 406.445312 66.394531 406.445312 69.402344 Z M 406.445312 69.402344 " fill-opacity="1" fill-rule="nonzero"/></svg>