<svg width="2303pt" height="448pt" viewBox="0 0 2303 448" xmlns="http://www.w3.org/2000/svg">
  <path d="M186.8 10.65C233.64-1.98 283.71-3.44 330.87 8.4c17.89 4.15 35.48 10.17 51.48 19.28 19.79 11.1 37.33 27.51 46.44 48.6 9.85 22.2 8.92 47.47 4.48 70.86-38.97-.04-77.95 0-116.93-.02 2.44-12.64 2.99-26.05-1.16-38.4-4.03-10.91-14.31-18.24-25.11-21.61-18.18-5.69-38.07-4.64-56.13.99-11.64 3.77-23.37 10.37-29.21 21.58-5.15 10.5-5.27 23.37-.54 34.04 4.01 9.2 12.68 15.03 20.83 20.25 17.32 10.45 36.08 18.16 54.29 26.86 26.18 12.42 52.56 25.96 73.43 46.47 15.25 14.9 26.35 34.48 29.12 55.79 3.33 26.51-2.32 54.32-16.79 76.9-10.21 16.12-24.44 29.4-40.33 39.82-19.2 12.59-40.73 21.29-62.82 27.31-26.79 7.41-54.61 10.19-82.32 10.88h-6.23c-12.96-.81-25.98-.98-38.86-2.77-28.63-3.75-57.23-11.04-82.62-25.11-18.58-10.32-35.37-25.28-44.26-44.92-4.6-9.89-6.92-20.72-7.63-31.58v-11.74c.82-12 2.92-24.08 8.16-35.01 37.55.01 75.11 0 112.67.01-3.95 13.05-3.07 27.53 2.58 39.95 4.87 10.19 14.71 16.95 24.95 21.01 20.07 7.94 42.37 8.22 63.41 4.57 12.81-2.43 25.96-6.82 35.4-16.22 7.73-7.54 11.42-18.63 10.74-29.31-.67-8.35-5.68-15.59-11.51-21.3-8.64-8.37-19-14.65-29.37-20.62-20.13-11.35-41.06-21.26-61.01-32.95-22.92-13.43-45.43-29.07-61.15-50.87-12.21-16.74-18.89-37.43-18.39-58.17-.11-27.1 10.38-53.91 28.53-74 21.46-24.05 51.04-39.64 81.79-48.32m330.77 6.73c105.17-.01 210.33 0 315.49-.01-10.4 28.01-20.85 55.99-31.25 83.99-63.13.1-126.27-.43-189.4-.27-7.73 25.59-15.77 51.09-23.57 76.66 58.91.01 117.82-.24 176.72-.24-9.43 27.51-18.97 54.99-28.29 82.54-57.57-.33-115.14-.09-172.71-.36-9 30.38-17.61 60.88-26.47 91.31 64.34.07 128.68.26 193.03.42 5.1-5.43 9.17-11.72 13.57-17.71 24.29-34.6 47.6-69.88 71.04-105.06 46.37-70 92.38-140.23 138.1-210.65 47.07-.2 94.14-.49 141.21-.64 3.46 27.14 5.21 54.48 7.69 81.72 9.5 114.18 18.37 228.41 27.2 342.65-40.97.05-81.95 0-122.92.02-.02-20.85-.01-41.7-.01-62.55-86.23.23-172.46.61-258.69.8-18.29 21.03-37.76 41-56.62 61.52-101.24.21-202.49.58-303.74 1 13.11-43.21 25.56-86.61 38.41-129.88 25.06-84.54 50.04-169.12 77.04-253.06 4.58-14.11 9.24-28.2 14.17-42.2m383.68 272.84c33.55.75 67.09 1.28 100.64 2.03-1.36-56.07-2.86-112.13-4.19-168.2-33.99 54.29-66.92 109.31-96.45 166.17m447.77-271.97c40.34-.16 80.67-.59 121.01-.87 19.23.86 38.41 5.23 55.82 13.51 15.59 7.45 29.72 18.39 39.73 32.56 8.82 12.34 14.17 27.05 15.68 42.13 2.27 23.57-3.12 47.9-15.59 68.08-14.99 24.56-39.07 42.34-65.09 53.86-9.72 4.33-19.8 7.82-30.04 10.68 13.35 4.75 24.19 15.04 31.26 27.15 4.44 7.74 7.62 16.56 7.16 25.61-1.02 25.33-1.48 50.67-1.56 76.02.24 20.35.24 40.77 2.68 61.01.61 4.75 1.41 9.52 3.15 14.02-42.89-.02-85.78-.01-128.66-.01 3.02-37.62 4.95-75.33 7.25-113.01 0-12.34.38-25.33-4.75-36.83-3.48-7.92-11.91-12.06-20.1-13.19-19.74-2.95-39.75-.91-59.6-1.62-19.75 54.83-39.41 109.69-59.14 164.53-37.62-.03-75.25.05-112.87-.05 12.04-42.54 25.86-84.55 38.72-126.84 30.93-98.94 56.24-199.67 91.38-297.27 27.83 1.16 55.71.5 83.56.53m12.15 83.39c-8.59 32.51-18.49 64.66-28.23 96.84 18.02.88 36.04 1.81 54.07 2.64 13.92.08 27.69-3.79 40.07-10.02 11.68-5.98 22.31-14.78 28.63-26.44 6.56-11.94 7.65-26.45 4.11-39.49-2.13-7.75-6.5-15.22-13.43-19.55-5.73-3.7-12.75-4.77-19.45-4.42-21.92.13-43.85.32-65.77.44m325.95-85.02c36.87.26 73.74.38 110.61.79-31.86 111.11-63.7 222.22-95.57 333.33 57.03.11 114.06-.12 171.1-.11-8.66 30.47-16.93 61.06-26.26 91.34-55.65.47-111.3.1-166.95.16-42.28-.07-84.57-.09-126.85-.26 11.46-39.45 23.87-78.61 36.12-117.82 32.21-102.6 65.14-204.97 97.8-307.43m301.92 2.01c104.66-.01 209.31 0 313.96-.01v.15c-10.22 28.03-20.46 56.06-30.51 84.15-63.53.2-127.05.02-190.57.09-8.02 26.18-16.9 52.09-25.47 78.1 59.2.03 118.4 0 177.6.02-8.3 26.63-16.61 53.25-24.93 79.87-57.77.02-115.54-.03-173.31.02-1.69-.4-1.67 1.71-2.15 2.7-9.37 30.5-18.77 61-27.2 91.77 64.55.02 129.11 0 193.67.01-12.11 28.84-24.36 57.62-36.45 86.47-44.21.12-88.43-.02-132.64-.1-56.58 0-113.17.02-169.76-.01 3.87-16.22 8.66-32.2 13.12-48.27 24.6-86.1 50.05-171.97 76.48-257.53 12.25-39.29 24.5-78.6 38.16-117.43" fill="#5a8ab5"/>
</svg>
