<?xml version="1.0" encoding="UTF-8"?>
<svg xmlns="http://www.w3.org/2000/svg" xmlns:xlink="http://www.w3.org/1999/xlink" width="1468.9pt" height="298.9pt" viewBox="0 0 1468.9 298.9" version="1.1">
<defs>
<clipPath id="clip1">
  <path d="M 992 45 L 1468.898438 45 L 1468.898438 218 L 992 218 Z M 992 45 "/>
</clipPath>
</defs>
<g id="surface1">
<path style=" stroke:none;fill-rule:evenodd;fill:rgb(89.0625%,0%,47.459412%);fill-opacity:1;" d="M 8.992188 166.78125 L 17.746094 166.78125 C 16.167969 178.027344 15.503906 184.648438 15.796875 186.59375 C 16.058594 188.507813 17.582031 191.070313 20.378906 194.230469 C 23.175781 197.378906 27.007813 199.953125 31.875 201.933594 C 36.753906 203.878906 41.929688 204.894531 47.359375 204.894531 C 56.699219 204.894531 64.578125 202.050781 71.050781 196.328125 C 77.480469 190.652344 81.308594 183.519531 82.554688 174.996094 C 83.707031 167.164063 82.714844 161.175781 79.628906 156.96875 C 76.472656 152.792969 69.746094 149.835938 59.445313 148.085938 C 44.179688 145.472656 34.039063 142.675781 29.019531 139.636719 C 23.996094 136.605469 20.355469 132.046875 18.09375 125.929688 C 15.824219 119.855469 15.332031 112.570313 16.578125 104.050781 C 18.671875 89.761719 24.820313 77.648438 35.066406 67.71875 C 45.308594 57.789063 60.089844 52.800781 79.367188 52.800781 C 86.9375 52.800781 93.527344 53.464844 99.207031 54.757813 C 104.894531 56.039063 110.453125 58.1875 115.917969 61.132813 L 116.535156 63.910156 C 114.753906 68.699219 113.367188 73.011719 112.386719 76.902344 C 111.386719 80.761719 110.03125 87.464844 108.296875 96.964844 L 99.648438 96.964844 C 101.023438 85.25 101.511719 78.699219 101.046875 77.21875 C 100.148438 74.726563 97.351563 72.078125 92.597656 69.316406 C 87.878906 66.554688 82.210938 65.15625 75.558594 65.15625 C 66.5 65.15625 59.066406 67.683594 53.339844 72.742188 C 47.574219 77.800781 44.148438 84.304688 42.972656 92.289063 C 42.261719 97.160156 42.660156 101.40625 44.164063 105.019531 C 45.703125 108.644531 48.167969 111.289063 51.617188 113.003906 C 55.03125 114.714844 62.65625 116.660156 74.480469 118.886719 C 85.195313 120.789063 92.394531 122.617188 96.035156 124.449219 C 102.003906 127.453125 106.234375 131.964844 108.632813 138.039063 C 111.070313 144.109375 111.605469 151.792969 110.253906 161.09375 C 107.890625 177.210938 100.570313 190.605469 88.246094 201.269531 C 75.953125 211.980469 60.476563 217.320313 41.84375 217.320313 C 33.5625 217.320313 26.195313 216.421875 19.671875 214.59375 C 13.1875 212.761719 6.632813 209.765625 0.0195313 205.558594 C 1.984375 200.265625 3.503906 195.429688 4.550781 191.070313 C 5.9375 185.078125 7.429688 176.980469 8.992188 166.78125 Z M 127.726563 122.546875 L 129.007813 113.746094 C 139.800781 112.617188 150.023438 110.4375 159.699219 107.242188 L 170.128906 103.234375 C 171.316406 103.234375 171.796875 104.132813 171.539063 105.878906 L 170.140625 112.617188 C 166.457031 130.101563 163.414063 146.953125 161.039063 163.238281 C 159.5 173.75 158.953125 180.722656 159.394531 184.183594 C 159.804688 187.644531 161.074219 190.335938 163.207031 192.238281 C 165.375 194.113281 168.449219 195.078125 172.496094 195.078125 C 177.214844 195.078125 181.527344 193.601563 185.539063 190.652344 C 189.5 187.644531 192.183594 184.382813 193.523438 180.835938 C 194.898438 177.246094 196.785156 167.050781 199.257813 150.230469 C 201.214844 136.789063 202.171875 128.933594 202.101563 126.628906 C 202.007813 125.425781 201.679688 124.5625 201.074219 124.144531 C 200.175781 123.515625 195.746094 122.980469 187.800781 122.546875 L 189.082031 113.746094 C 202.914063 112 213.195313 109.925781 219.921875 107.59375 L 231.078125 103.234375 C 232.195313 103.234375 232.660156 104.050781 232.429688 105.648438 L 231.777344 108.722656 C 228.710938 121.964844 224.617188 145.953125 219.539063 180.722656 C 217.976563 191.351563 217.265625 198.039063 217.414063 200.769531 C 217.554688 202.050781 217.941406 202.996094 218.605469 203.53125 C 219.5625 204.195313 223.628906 204.859375 230.84375 205.441406 L 229.457031 214.941406 C 221.890625 214.476563 214.386719 214.242188 206.878906 214.242188 C 200.773438 214.242188 195.070313 214.476563 189.78125 214.941406 L 189.164063 212.878906 C 190.0625 209.066406 191.238281 203.109375 192.707031 194.964844 C 185.6875 200.652344 178.800781 206.921875 172.027344 213.777344 C 166.992188 216.152344 162.179688 217.320313 157.601563 217.320313 C 151.515625 217.320313 146.398438 215.921875 142.332031 213.113281 C 138.226563 210.269531 135.441406 206.609375 133.925781 202.085938 C 132.460938 197.574219 132.308594 191.1875 133.507813 182.96875 L 135.523438 170.558594 C 136.851563 162.886719 137.867188 156.652344 138.578125 151.828125 C 140.546875 138.316406 141.503906 130.21875 141.421875 127.523438 C 141.328125 125.8125 140.839844 124.5625 139.894531 123.828125 C 138.902344 123.128906 134.871094 122.664063 127.726563 122.546875 Z M 239.015625 214.941406 L 240.402344 205.441406 C 247.335938 205.175781 251.347656 204.625 252.394531 203.925781 C 253.453125 203.179688 254.257813 201.898438 254.808594 199.988281 C 255.902344 196.257813 257.453125 187.445313 259.503906 173.519531 C 263.78125 144.226563 265.765625 128.386719 265.449219 125.929688 C 265.238281 123.910156 263.046875 122.816406 258.957031 122.746094 L 252.546875 122.546875 L 253.828125 113.746094 C 262.113281 112.769531 269.261719 111.519531 275.238281 110.039063 C 281.230469 108.5625 286.6875 106.730469 291.652344 104.632813 C 292.617188 104.246094 293.363281 104.050781 293.808594 104.050781 C 294.75 104.050781 295.054688 104.984375 294.773438 106.894531 C 294.5625 108.339844 294.214844 110.273438 293.65625 112.734375 C 293.363281 113.78125 293.015625 115.695313 292.617188 118.421875 L 292.011719 122.546875 L 310.359375 108.492188 C 314.25 105.53125 319.695313 104.050781 326.722656 104.050781 C 333.808594 104.050781 339.21875 105.613281 342.933594 108.757813 C 346.640625 111.953125 349.089844 116.976563 350.253906 123.910156 L 369.453125 108.492188 C 373.101563 105.53125 377.867188 104.050781 383.707031 104.050781 C 394.128906 104.050781 401.328125 106.976563 405.398438 112.816406 C 409.429688 118.691406 410.480469 128.1875 408.554688 141.347656 L 406.996094 150.8125 C 405.1875 161.324219 403.683594 170.675781 402.484375 178.878906 C 400.886719 189.753906 400.164063 196.792969 400.269531 199.988281 C 400.421875 201.746094 400.921875 202.949219 401.761719 203.695313 C 402.648438 204.429688 406.261719 205.011719 412.71875 205.441406 L 411.320313 214.941406 C 403.101563 214.476563 395.910156 214.242188 389.730469 214.242188 C 383.765625 214.242188 377.550781 214.476563 371.035156 214.941406 L 370.164063 212.761719 C 374.359375 196.410156 377.574219 180.441406 379.859375 164.835938 C 382.5625 146.371094 383.042969 134.808594 381.199219 130.21875 C 379.394531 125.625 375.351563 123.316406 369.042969 123.316406 C 364.929688 123.316406 361.164063 124.492188 357.691406 126.859375 C 354.230469 129.203125 351.792969 131.929688 350.335938 134.960938 C 349.367188 137.105469 348.0625 143.726563 346.421875 154.9375 C 343.484375 174.996094 341.6875 188.890625 341.011719 196.5625 C 340.710938 199.988281 341 202.167969 341.921875 203.109375 C 342.796875 204.078125 346.886719 204.859375 354.242188 205.441406 L 352.84375 214.941406 C 344.230469 214.476563 335.742188 214.242188 327.386719 214.242188 C 317.003906 214.242188 307.605469 214.476563 299.25 214.941406 L 300.648438 205.441406 C 307.1875 205.441406 311.21875 204.394531 312.652344 202.214844 C 314.097656 200.035156 316.070313 190.535156 318.539063 173.632813 C 321.347656 154.390625 322.769531 142.410156 322.78125 137.6875 C 322.828125 132.980469 321.757813 129.402344 319.53125 126.976563 C 317.339844 124.527344 313.996094 123.316406 309.472656 123.316406 C 306.183594 123.316406 303.039063 124.179688 300.066406 125.929688 C 297.09375 127.6875 294.425781 130.183594 292.128906 133.363281 C 290.777344 135.125 289.878906 137.804688 289.34375 141.464844 L 288.808594 145.789063 C 288.703125 147.933594 287.898438 153.890625 286.464844 163.703125 L 284.425781 177.175781 C 282.523438 190.105469 281.578125 197.738281 281.640625 200.105469 C 281.613281 201.632813 282 202.714844 282.78125 203.414063 C 283.609375 204.078125 287.128906 204.777344 293.375 205.441406 L 291.988281 214.941406 C 284.121094 214.476563 275.425781 214.242188 265.960938 214.242188 C 262.628906 214.242188 253.640625 214.476563 239.015625 214.941406 Z M 418.300781 214.941406 L 419.6875 205.441406 C 426.621094 205.175781 430.632813 204.625 431.691406 203.925781 C 432.753906 203.179688 433.546875 201.898438 434.09375 199.988281 C 435.1875 196.257813 436.75 187.445313 438.789063 173.519531 C 443.078125 144.226563 445.0625 128.386719 444.734375 125.929688 C 444.523438 123.910156 442.347656 122.816406 438.242188 122.746094 L 431.820313 122.546875 L 433.113281 113.746094 C 441.402344 112.769531 448.535156 111.519531 454.527344 110.039063 C 460.515625 108.5625 465.972656 106.730469 470.925781 104.632813 C 471.90625 104.246094 472.648438 104.050781 473.09375 104.050781 C 474.039063 104.050781 474.339844 104.984375 474.0625 106.894531 C 473.851563 108.339844 473.5 110.273438 472.929688 112.734375 C 472.648438 113.78125 472.300781 115.695313 471.90625 118.421875 L 471.296875 122.546875 L 489.644531 108.492188 C 493.539063 105.53125 498.980469 104.050781 506.007813 104.050781 C 513.105469 104.050781 518.503906 105.613281 522.222656 108.757813 C 525.929688 111.953125 528.386719 116.976563 529.539063 123.910156 L 548.726563 108.492188 C 552.386719 105.53125 557.152344 104.050781 562.992188 104.050781 C 573.414063 104.050781 580.617188 106.976563 584.683594 112.816406 C 588.71875 118.691406 589.765625 128.1875 587.84375 141.347656 L 586.28125 150.8125 C 584.476563 161.324219 582.972656 170.675781 581.769531 178.878906 C 580.171875 189.753906 579.449219 196.792969 579.554688 199.988281 C 579.707031 201.746094 580.210938 202.949219 581.058594 203.695313 C 581.933594 204.429688 585.546875 205.011719 591.992188 205.441406 L 590.605469 214.941406 C 582.398438 214.476563 575.195313 214.242188 569.019531 214.242188 C 563.050781 214.242188 556.839844 214.476563 550.324219 214.941406 L 549.449219 212.761719 C 553.644531 196.410156 556.863281 180.441406 559.144531 164.835938 C 561.851563 146.371094 562.328125 134.808594 560.488281 130.21875 C 558.679688 125.625 554.636719 123.316406 548.328125 123.316406 C 544.214844 123.316406 540.449219 124.492188 536.976563 126.859375 C 533.515625 129.203125 531.078125 131.929688 529.621094 134.960938 C 528.667969 137.105469 527.351563 143.726563 525.707031 154.9375 C 522.769531 174.996094 520.976563 188.890625 520.296875 196.5625 C 519.996094 199.988281 520.285156 202.167969 521.207031 203.109375 C 522.082031 204.078125 526.171875 204.859375 533.515625 205.441406 L 532.128906 214.941406 C 523.503906 214.476563 515.03125 214.242188 506.671875 214.242188 C 496.289063 214.242188 486.894531 214.476563 478.535156 214.941406 L 479.933594 205.441406 C 486.484375 205.441406 490.507813 204.394531 491.941406 202.214844 C 493.386719 200.035156 495.34375 190.535156 497.828125 173.632813 C 500.648438 154.390625 502.058594 142.410156 502.070313 137.6875 C 502.117188 132.980469 501.042969 129.402344 498.816406 126.976563 C 496.625 124.527344 493.269531 123.316406 488.757813 123.316406 C 485.472656 123.316406 482.324219 124.179688 479.351563 125.929688 C 476.378906 127.6875 473.710938 130.183594 471.402344 133.363281 C 470.0625 135.125 469.164063 137.804688 468.628906 141.464844 L 468.09375 145.789063 C 467.988281 147.933594 467.183594 153.890625 465.75 163.703125 L 463.699219 177.175781 C 461.8125 190.105469 460.867188 197.738281 460.925781 200.105469 C 460.914063 201.632813 461.285156 202.714844 462.066406 203.414063 C 462.882813 204.078125 466.414063 204.777344 472.675781 205.441406 L 471.273438 214.941406 C 463.40625 214.476563 454.714844 214.242188 445.246094 214.242188 C 441.914063 214.242188 432.929688 214.476563 418.300781 214.941406 Z M 649.734375 49.535156 C 653.976563 49.535156 657.355469 51.25 659.875 54.710938 C 662.378906 58.1875 663.253906 62.382813 662.53125 67.335938 C 661.820313 72.195313 659.722656 76.320313 656.191406 79.796875 C 652.671875 83.257813 648.742188 85.003906 644.441406 85.003906 C 640.1875 85.003906 636.820313 83.257813 634.300781 79.796875 C 631.796875 76.320313 630.898438 72.195313 631.609375 67.335938 C 632.34375 62.382813 634.453125 58.1875 637.972656 54.710938 C 641.503906 51.25 645.421875 49.535156 649.734375 49.535156 Z M 597.785156 214.941406 L 599.171875 205.441406 C 606.691406 205.175781 611.105469 204.625 612.378906 203.84375 C 613.636719 203.109375 614.695313 200.96875 615.546875 197.457031 C 616.761719 192.667969 618.578125 182.121094 620.980469 165.765625 C 622.003906 158.679688 622.867188 152.128906 623.542969 146.140625 L 625.222656 132.78125 C 625.863281 128.386719 625.828125 125.660156 625.164063 124.644531 C 624.5 123.597656 622.34375 123.015625 618.695313 122.863281 L 611.316406 122.546875 L 612.597656 113.746094 C 628.753906 112.382813 642.390625 109.15625 653.5 104.050781 L 655.632813 106.347656 C 652.589844 120.871094 649.023438 142.011719 644.96875 169.742188 C 642.613281 185.8125 641.425781 195.511719 641.390625 198.820313 C 641.378906 201.199219 641.761719 202.714844 642.578125 203.414063 C 643.371094 204.078125 647.601563 204.777344 655.351563 205.441406 L 653.953125 214.941406 C 642.019531 214.476563 632.773438 214.242188 626.234375 214.242188 C 622.703125 214.242188 613.230469 214.476563 597.785156 214.941406 Z M 673.230469 123.316406 L 687.917969 113.386719 C 689.757813 99.925781 691.171875 88.164063 692.207031 78.035156 C 701.671875 74.839844 710.761719 70.949219 719.46875 66.390625 L 722.046875 69.003906 C 719.003906 80.0625 715.808594 94.867188 712.59375 113.386719 C 715.53125 113.933594 718.515625 114.214844 721.496094 114.214844 C 728.257813 114.214844 734.398438 113.699219 739.914063 112.734375 L 740.730469 113.386719 L 739.214844 117.523438 C 737.605469 121.765625 736.3125 125.695313 735.320313 129.238281 C 727.640625 128.585938 722 128.222656 718.363281 128.222656 C 715.644531 128.222656 712.964844 128.421875 710.332031 128.816406 C 709.074219 136.488281 708.011719 143.261719 707.160156 149.097656 C 703.421875 174.636719 701.9375 189.171875 702.753906 192.667969 C 703.558594 196.175781 706.460938 197.925781 711.449219 197.925781 C 712.90625 197.925781 714.492188 197.738281 716.253906 197.34375 C 718 196.992188 719.878906 196.445313 721.882813 195.746094 L 722.941406 200.105469 C 718.222656 205.210938 713.585938 210.464844 709.015625 215.957031 C 706.460938 216.421875 704.175781 216.738281 702.078125 216.96875 C 700.003906 217.203125 698.09375 217.320313 696.355469 217.320313 C 690.796875 217.320313 686.296875 216.222656 682.894531 214.007813 C 679.457031 211.78125 677.160156 208.949219 675.972656 205.441406 C 674.816406 201.980469 674.722656 196.757813 675.75 189.824219 C 676.273438 186.175781 677.847656 176.582031 680.421875 161.09375 C 682.753906 147.46875 684.503906 136.722656 685.65625 128.816406 L 680.632813 128.585938 C 678.5 128.585938 675.75 128.816406 672.359375 129.238281 Z M 673.230469 123.316406 "/>
<path style=" stroke:none;fill-rule:evenodd;fill:rgb(0%,61.914063%,87.889099%);fill-opacity:1;" d="M 993.5625 276.382813 L 992.464844 277.496094 C 990.898438 276.007813 989.695313 274.382813 988.839844 272.625 C 987.980469 270.878906 987.425781 268.957031 987.1875 266.851563 C 986.929688 264.746094 987.035156 262.398438 987.457031 259.84375 C 987.890625 257.285156 988.570313 254.957031 989.515625 252.835938 C 990.480469 250.746094 991.667969 248.804688 993.109375 247.0625 C 994.554688 245.316406 996.296875 243.691406 998.359375 242.1875 L 999.078125 243.316406 C 997.757813 244.789063 996.734375 246.171875 995.996094 247.453125 C 995.261719 248.714844 994.628906 250.234375 994.101563 251.976563 C 993.574219 253.738281 993.003906 256.355469 992.433594 259.84375 C 991.832031 263.421875 991.515625 266.054688 991.472656 267.753906 C 991.425781 269.46875 991.5625 270.957031 991.863281 272.234375 C 992.179688 273.511719 992.734375 274.894531 993.5625 276.382813 Z M 996.929688 269.136719 L 997.183594 267.617188 C 998.703125 267.601563 999.605469 267.496094 999.890625 267.285156 C 1000.121094 267.136719 1000.300781 266.714844 1000.449219 266.007813 C 1000.988281 263.675781 1001.5 260.96875 1002.011719 257.917969 C 1002.390625 255.664063 1002.761719 253.242188 1003.140625 250.640625 C 1003.519531 248.054688 1003.648438 246.566406 1003.578125 246.160156 C 1003.550781 245.976563 1003.460938 245.859375 1003.339844 245.78125 C 1003.160156 245.648438 1002.339844 245.542969 1000.878906 245.46875 L 1001.128906 243.964844 C 1003.21875 244.007813 1005.019531 244.054688 1006.519531 244.054688 C 1008.71875 244.054688 1011.03125 244.007813 1013.46875 243.964844 C 1015.058594 243.902344 1016.398438 243.886719 1017.5 243.886719 C 1018.28125 243.886719 1019.019531 243.902344 1019.710938 243.964844 L 1019.828125 244.339844 C 1019.320313 245.859375 1018.871094 247.648438 1018.460938 249.707031 L 1016.960938 249.707031 L 1017.140625 247.78125 C 1017.199219 247.167969 1017.191406 246.789063 1017.078125 246.65625 C 1016.96875 246.519531 1016.550781 246.382813 1015.820313 246.234375 C 1015.078125 246.097656 1014.011719 246.023438 1012.601563 246.023438 C 1011.558594 246.023438 1010.449219 246.070313 1009.28125 246.171875 C 1008.789063 248.203125 1008.488281 249.632813 1008.359375 250.472656 L 1007.761719 254.339844 L 1007.589844 255.164063 C 1008.300781 255.179688 1009.171875 255.195313 1010.191406 255.195313 C 1012.03125 255.195313 1013.128906 255.152344 1013.519531 255.074219 C 1013.710938 255.03125 1013.878906 254.925781 1013.96875 254.789063 C 1014.148438 254.535156 1014.371094 253.78125 1014.671875 252.535156 L 1016.21875 252.535156 C 1016 253.585938 1015.820313 254.640625 1015.640625 255.675781 C 1015.46875 256.65625 1015.230469 258.21875 1014.910156 260.367188 L 1013.371094 260.367188 C 1013.53125 258.804688 1013.578125 257.902344 1013.488281 257.632813 C 1013.429688 257.496094 1013.308594 257.390625 1013.078125 257.332031 C 1012.539063 257.179688 1011.378906 257.105469 1009.621094 257.105469 L 1007.261719 257.136719 L 1006.191406 264.023438 C 1005.949219 265.691406 1005.878906 266.65625 1005.949219 266.925781 C 1006.011719 267.089844 1006.121094 267.210938 1006.269531 267.300781 C 1006.488281 267.421875 1007.46875 267.527344 1009.21875 267.617188 L 1008.960938 269.136719 C 1007.058594 269.046875 1005.28125 269 1003.589844 269 C 1002.121094 269 999.890625 269.046875 996.929688 269.136719 Z M 1019.078125 260.578125 C 1019.550781 257.753906 1020.570313 255.617188 1022.128906 254.1875 C 1024.011719 252.503906 1026.449219 251.664063 1029.460938 251.664063 C 1032.449219 251.664063 1034.511719 252.339844 1035.671875 253.691406 C 1036.808594 255.046875 1037.148438 257.179688 1036.660156 260.097656 C 1036.160156 263.105469 1034.96875 265.421875 1033.121094 267.046875 C 1031.28125 268.667969 1028.929688 269.480469 1026.101563 269.480469 C 1023.339844 269.480469 1021.339844 268.730469 1020.148438 267.210938 C 1018.941406 265.691406 1018.601563 263.480469 1019.078125 260.578125 Z M 1024.25 259.347656 C 1023.730469 262.519531 1023.761719 264.789063 1024.339844 266.144531 C 1024.789063 267.179688 1025.671875 267.707031 1026.941406 267.707031 C 1028.039063 267.707031 1028.988281 267.273438 1029.730469 266.382813 C 1030.488281 265.496094 1031.058594 263.886719 1031.441406 261.558594 C 1031.980469 258.339844 1031.980469 256.128906 1031.441406 254.878906 C 1030.988281 253.902344 1030.128906 253.421875 1028.839844 253.421875 C 1027.710938 253.421875 1026.761719 253.859375 1025.980469 254.761719 C 1025.191406 255.664063 1024.609375 257.179688 1024.25 259.347656 Z M 1037.140625 269.121094 L 1037.378906 267.617188 C 1038.601563 267.558594 1039.308594 267.480469 1039.5 267.40625 C 1039.671875 267.332031 1039.789063 267.210938 1039.890625 267.058594 C 1040.089844 266.773438 1040.269531 266.144531 1040.449219 265.164063 C 1040.789063 263.421875 1041.078125 261.828125 1041.320313 260.382813 C 1041.789063 257.617188 1042.011719 255.976563 1042.03125 255.46875 C 1042.039063 255.164063 1041.980469 254.957031 1041.820313 254.835938 C 1041.648438 254.699219 1040.898438 254.609375 1039.558594 254.566406 L 1039.800781 253.179688 C 1042.25 252.957031 1044.03125 252.667969 1045.121094 252.339844 L 1047.078125 251.664063 C 1047.238281 251.664063 1047.320313 251.769531 1047.28125 252.007813 L 1047.210938 252.25 C 1047.050781 253 1046.839844 254.082031 1046.601563 255.496094 C 1047.320313 254.910156 1048.121094 254.171875 1049 253.273438 C 1049.671875 252.59375 1050.21875 252.171875 1050.660156 251.964844 C 1051.089844 251.769531 1051.671875 251.664063 1052.339844 251.664063 C 1052.730469 251.664063 1053.109375 251.722656 1053.488281 251.859375 C 1053.171875 253.046875 1052.820313 254.683594 1052.449219 256.746094 L 1051.589844 257.03125 C 1051.398438 256.566406 1051.148438 256.234375 1050.851563 256.054688 C 1050.550781 255.859375 1050.128906 255.769531 1049.609375 255.769531 C 1048.898438 255.769531 1048.25 255.949219 1047.671875 256.324219 C 1047.089844 256.699219 1046.691406 257.121094 1046.460938 257.601563 C 1046.308594 257.964844 1046.058594 259.179688 1045.710938 261.257813 C 1045.210938 264.292969 1044.960938 266.054688 1044.960938 266.566406 C 1044.941406 266.894531 1045.019531 267.121094 1045.179688 267.242188 C 1045.429688 267.421875 1046.308594 267.558594 1047.828125 267.617188 L 1047.589844 269.121094 L 1045.578125 269.058594 C 1044.300781 269.015625 1043.199219 269 1042.269531 269 C 1041.378906 269 1040.359375 269.015625 1039.171875 269.058594 Z M 1052.28125 269.121094 L 1052.539063 267.617188 C 1053.789063 267.570313 1054.511719 267.480469 1054.699219 267.375 C 1054.898438 267.257813 1055.050781 267.058594 1055.140625 266.761719 C 1055.339844 266.171875 1055.621094 264.789063 1055.980469 262.59375 C 1056.75 257.976563 1057.109375 255.480469 1057.050781 255.105469 C 1057 254.789063 1056.609375 254.609375 1055.878906 254.59375 L 1054.71875 254.566406 L 1054.941406 253.179688 C 1056.449219 253.03125 1057.738281 252.835938 1058.808594 252.59375 C 1059.890625 252.367188 1060.878906 252.082031 1061.769531 251.753906 C 1061.949219 251.691406 1062.089844 251.664063 1062.160156 251.664063 C 1062.339844 251.664063 1062.390625 251.796875 1062.339844 252.097656 C 1062.300781 252.339844 1062.238281 252.640625 1062.148438 253.03125 C 1062.089844 253.195313 1062.03125 253.496094 1061.949219 253.917969 L 1061.851563 254.566406 L 1065.148438 252.355469 C 1065.859375 251.886719 1066.839844 251.664063 1068.101563 251.664063 C 1069.390625 251.664063 1070.371094 251.902344 1071.03125 252.398438 C 1071.710938 252.894531 1072.148438 253.691406 1072.359375 254.789063 L 1075.828125 252.355469 C 1076.480469 251.886719 1077.351563 251.664063 1078.398438 251.664063 C 1080.28125 251.664063 1081.578125 252.113281 1082.308594 253.046875 C 1083.050781 253.964844 1083.238281 255.453125 1082.878906 257.527344 L 1082.609375 259.015625 C 1082.28125 260.667969 1082.03125 262.144531 1081.800781 263.4375 C 1081.519531 265.152344 1081.378906 266.265625 1081.410156 266.761719 C 1081.441406 267.03125 1081.53125 267.226563 1081.679688 267.347656 C 1081.828125 267.453125 1082.488281 267.558594 1083.648438 267.617188 L 1083.410156 269.121094 C 1081.921875 269.046875 1080.628906 269 1079.5 269 C 1078.429688 269 1077.300781 269.046875 1076.128906 269.121094 L 1075.96875 268.773438 C 1076.730469 266.1875 1077.300781 263.675781 1077.710938 261.226563 C 1078.191406 258.324219 1078.28125 256.503906 1077.949219 255.78125 C 1077.621094 255.0625 1076.898438 254.683594 1075.761719 254.683594 C 1075 254.683594 1074.328125 254.878906 1073.710938 255.257813 C 1073.078125 255.617188 1072.640625 256.054688 1072.371094 256.519531 C 1072.210938 256.863281 1071.96875 257.902344 1071.679688 259.660156 C 1071.148438 262.820313 1070.820313 265.015625 1070.699219 266.21875 C 1070.660156 266.761719 1070.699219 267.105469 1070.871094 267.257813 C 1071.03125 267.40625 1071.769531 267.527344 1073.089844 267.617188 L 1072.839844 269.121094 C 1071.289063 269.046875 1069.761719 269 1068.25 269 C 1066.371094 269 1064.671875 269.046875 1063.171875 269.121094 L 1063.429688 267.617188 C 1064.601563 267.617188 1065.328125 267.453125 1065.589844 267.105469 C 1065.851563 266.761719 1066.191406 265.273438 1066.640625 262.609375 C 1067.148438 259.585938 1067.390625 257.691406 1067.390625 256.957031 C 1067.410156 256.21875 1067.210938 255.648438 1066.808594 255.273438 C 1066.421875 254.878906 1065.820313 254.683594 1065 254.683594 C 1064.398438 254.683594 1063.828125 254.835938 1063.300781 255.105469 C 1062.761719 255.375 1062.28125 255.769531 1061.859375 256.277344 C 1061.621094 256.550781 1061.460938 256.96875 1061.371094 257.542969 L 1061.269531 258.234375 C 1061.238281 258.566406 1061.109375 259.496094 1060.851563 261.046875 L 1060.480469 263.164063 C 1060.148438 265.210938 1059.96875 266.398438 1059.980469 266.773438 C 1059.980469 267.015625 1060.058594 267.179688 1060.191406 267.300781 C 1060.339844 267.40625 1060.96875 267.511719 1062.101563 267.617188 L 1061.859375 269.121094 C 1060.429688 269.046875 1058.871094 269 1057.148438 269 C 1056.550781 269 1054.929688 269.046875 1052.28125 269.121094 Z M 1100.628906 265.632813 L 1101.058594 266.144531 L 1099.96875 267.871094 C 1099.019531 268.398438 1098.03125 268.804688 1096.988281 269.074219 C 1095.96875 269.347656 1094.878906 269.480469 1093.769531 269.480469 C 1091.171875 269.480469 1089.230469 268.730469 1087.980469 267.210938 C 1086.730469 265.691406 1086.339844 263.570313 1086.789063 260.835938 C 1087.089844 259.089844 1087.539063 257.664063 1088.179688 256.519531 C 1088.691406 255.601563 1089.410156 254.835938 1090.328125 254.21875 C 1091.261719 253.617188 1092.300781 253.046875 1093.449219 252.488281 C 1094.628906 251.933594 1095.851563 251.664063 1097.121094 251.664063 C 1099.078125 251.664063 1100.609375 252.203125 1101.710938 253.300781 C 1102.820313 254.398438 1103.148438 256.160156 1102.75 258.59375 C 1102.699219 258.894531 1102.609375 259.347656 1102.480469 259.949219 L 1099.441406 260.488281 C 1098.519531 260.550781 1097.199219 260.578125 1095.46875 260.578125 L 1091.578125 260.578125 C 1091.410156 262.640625 1091.769531 264.1875 1092.660156 265.242188 C 1093.53125 266.277344 1094.78125 266.789063 1096.421875 266.789063 C 1097.089844 266.789063 1097.789063 266.699219 1098.488281 266.488281 C 1099.179688 266.292969 1099.910156 266.007813 1100.628906 265.632813 Z M 1091.769531 258.667969 C 1092.839844 258.773438 1093.910156 258.820313 1094.96875 258.820313 C 1095.921875 258.820313 1096.929688 258.773438 1097.980469 258.667969 L 1098.148438 257.84375 C 1098.390625 256.355469 1098.300781 255.285156 1097.878906 254.609375 C 1097.441406 253.933594 1096.761719 253.585938 1095.851563 253.585938 C 1095.199219 253.585938 1094.628906 253.753906 1094.101563 254.070313 C 1093.578125 254.382813 1093.171875 254.835938 1092.839844 255.40625 C 1092.511719 255.976563 1092.160156 257.078125 1091.769531 258.667969 Z M 1102.898438 269.121094 L 1103.148438 267.617188 C 1104.371094 267.558594 1105.078125 267.480469 1105.269531 267.40625 C 1105.421875 267.332031 1105.558594 267.210938 1105.671875 267.058594 C 1105.851563 266.773438 1106.03125 266.144531 1106.21875 265.164063 C 1106.550781 263.421875 1106.851563 261.828125 1107.089844 260.382813 C 1107.539063 257.617188 1107.789063 255.976563 1107.800781 255.46875 C 1107.820313 255.164063 1107.738281 254.957031 1107.589844 254.835938 C 1107.421875 254.699219 1106.671875 254.609375 1105.328125 254.566406 L 1105.558594 253.179688 C 1108.011719 252.957031 1109.789063 252.667969 1110.878906 252.339844 L 1112.851563 251.664063 C 1113.019531 251.664063 1113.078125 251.769531 1113.050781 252.007813 L 1112.988281 252.25 C 1112.808594 253 1112.609375 254.082031 1112.371094 255.496094 C 1113.078125 254.910156 1113.878906 254.171875 1114.761719 253.273438 C 1115.441406 252.59375 1115.980469 252.171875 1116.429688 251.964844 C 1116.871094 251.769531 1117.421875 251.664063 1118.121094 251.664063 C 1118.488281 251.664063 1118.871094 251.722656 1119.238281 251.859375 C 1118.941406 253.046875 1118.601563 254.683594 1118.21875 256.746094 L 1117.359375 257.03125 C 1117.171875 256.566406 1116.910156 256.234375 1116.628906 256.054688 C 1116.328125 255.859375 1115.910156 255.769531 1115.378906 255.769531 C 1114.660156 255.769531 1114.03125 255.949219 1113.441406 256.324219 C 1112.871094 256.699219 1112.460938 257.121094 1112.238281 257.601563 C 1112.089844 257.964844 1111.828125 259.179688 1111.480469 261.257813 C 1110.96875 264.292969 1110.730469 266.054688 1110.730469 266.566406 C 1110.71875 266.894531 1110.789063 267.121094 1110.960938 267.242188 C 1111.199219 267.421875 1112.089844 267.558594 1113.609375 267.617188 L 1113.351563 269.121094 L 1111.351563 269.058594 C 1110.070313 269.015625 1108.96875 269 1108.039063 269 C 1107.148438 269 1106.121094 269.015625 1104.941406 269.058594 Z M 1122 245.046875 L 1122.179688 244.007813 C 1123.910156 243.78125 1125.289063 243.558594 1126.308594 243.316406 C 1127.328125 243.078125 1128.449219 242.730469 1129.660156 242.292969 L 1130.058594 242.683594 C 1129.171875 246.957031 1128.089844 252.925781 1126.808594 260.578125 C 1126.550781 262.128906 1126.308594 263.691406 1126.101563 265.273438 C 1125.949219 266.277344 1125.910156 266.851563 1125.980469 267.015625 C 1126.039063 267.179688 1126.160156 267.316406 1126.339844 267.40625 C 1126.519531 267.496094 1127.230469 267.570313 1128.449219 267.617188 L 1128.210938 269.121094 L 1126.328125 269.058594 C 1125.148438 269.015625 1124.179688 269 1123.359375 269 L 1117.980469 269.121094 L 1118.238281 267.617188 L 1119.570313 267.558594 C 1120.179688 267.527344 1120.578125 267.421875 1120.789063 267.210938 C 1121 267.015625 1121.230469 266.265625 1121.46875 264.96875 C 1121.851563 263.152344 1122.300781 260.578125 1122.851563 257.257813 L 1124.121094 249.585938 C 1124.488281 247.257813 1124.640625 245.949219 1124.578125 245.648438 C 1124.550781 245.496094 1124.480469 245.390625 1124.359375 245.316406 C 1124.160156 245.179688 1123.378906 245.105469 1122 245.046875 Z M 1132.011719 253.511719 L 1132.25 252.039063 C 1134.988281 252.113281 1136.75 252.160156 1137.511719 252.160156 C 1138.578125 252.160156 1140.089844 252.113281 1142.039063 252.039063 L 1141.789063 253.511719 C 1140.671875 253.558594 1140 253.632813 1139.769531 253.753906 C 1139.53125 253.859375 1139.410156 254.054688 1139.351563 254.324219 C 1139.300781 254.667969 1139.601563 256.339844 1140.300781 259.285156 L 1141.421875 264.25 L 1143.738281 260.339844 C 1145.808594 256.820313 1146.910156 254.804688 1147 254.265625 C 1147.050781 254.007813 1146.960938 253.84375 1146.78125 253.738281 C 1146.578125 253.632813 1145.949219 253.558594 1144.878906 253.511719 L 1145.121094 252.039063 L 1146.25 252.082031 C 1147.449219 252.144531 1148.25 252.160156 1148.640625 252.160156 C 1149.078125 252.160156 1150.210938 252.113281 1152.039063 252.039063 L 1151.800781 253.511719 C 1151.210938 253.511719 1150.71875 253.601563 1150.308594 253.78125 C 1150.148438 253.859375 1149.980469 253.992188 1149.828125 254.171875 C 1149.601563 254.429688 1148.570313 256.082031 1146.75 259.136719 L 1142.128906 266.773438 L 1137.851563 273.859375 C 1136.878906 275.300781 1136.089844 276.308594 1135.441406 276.894531 C 1134.789063 277.46875 1134.121094 277.902344 1133.410156 278.1875 C 1132.699219 278.460938 1131.941406 278.609375 1131.121094 278.609375 C 1130.308594 278.609375 1129.480469 278.398438 1128.640625 278.007813 C 1129.121094 276.804688 1129.53125 275.660156 1129.851563 274.535156 L 1130.359375 274.367188 C 1130.929688 275.164063 1131.679688 275.558594 1132.628906 275.558594 C 1133.410156 275.558594 1134.101563 275.300781 1134.699219 274.773438 C 1135.300781 274.265625 1136.359375 272.773438 1137.859375 270.308594 L 1135.539063 260.160156 L 1134.25 254.683594 C 1134.128906 254.25 1133.980469 253.964844 1133.769531 253.828125 C 1133.570313 253.675781 1132.988281 253.574219 1132.011719 253.511719 Z M 1160.511719 267.496094 C 1161.628906 267.4375 1162.339844 267.332031 1162.640625 267.152344 C 1162.839844 267.03125 1163.199219 266.578125 1163.710938 265.78125 C 1164.699219 264.234375 1166 262.070313 1167.589844 259.300781 L 1176.550781 243.738281 L 1179.179688 243.738281 L 1184.089844 263.015625 C 1184.71875 265.527344 1185.140625 266.894531 1185.351563 267.136719 C 1185.558594 267.375 1186.28125 267.542969 1187.539063 267.617188 L 1187.289063 269.136719 C 1185.351563 269.046875 1183.511719 269 1181.769531 269 C 1179.710938 269 1177.71875 269.046875 1175.839844 269.136719 L 1176.101563 267.617188 C 1177.53125 267.558594 1178.371094 267.480469 1178.609375 267.375 C 1178.851563 267.273438 1178.988281 267.089844 1179.03125 266.835938 C 1179.058594 266.59375 1178.941406 265.828125 1178.671875 264.488281 L 1177.988281 261.421875 C 1176.519531 261.40625 1174.851563 261.390625 1173.03125 261.390625 C 1171.441406 261.390625 1169.980469 261.40625 1168.671875 261.421875 L 1167.539063 263.496094 C 1167.230469 264.054688 1166.820313 264.894531 1166.339844 266.007813 C 1166.21875 266.265625 1166.148438 266.488281 1166.121094 266.683594 C 1166.070313 266.957031 1166.148438 267.152344 1166.359375 267.273438 C 1166.578125 267.375 1167.410156 267.496094 1168.839844 267.617188 L 1168.578125 269.136719 C 1167.421875 269.046875 1165.96875 269 1164.21875 269 C 1162.550781 269 1161.230469 269.046875 1160.238281 269.136719 Z M 1175.179688 250.097656 L 1169.859375 259.300781 C 1170.941406 259.363281 1172.160156 259.390625 1173.480469 259.390625 C 1174.878906 259.390625 1176.210938 259.363281 1177.480469 259.300781 Z M 1188.210938 269.121094 L 1188.460938 267.617188 C 1189.679688 267.558594 1190.390625 267.480469 1190.570313 267.40625 C 1190.730469 267.332031 1190.851563 267.210938 1190.96875 267.058594 C 1191.148438 266.773438 1191.328125 266.144531 1191.53125 265.164063 C 1191.859375 263.421875 1192.148438 261.828125 1192.390625 260.382813 C 1192.851563 257.617188 1193.089844 255.976563 1193.109375 255.46875 C 1193.121094 255.164063 1193.050781 254.957031 1192.898438 254.835938 C 1192.730469 254.699219 1191.980469 254.609375 1190.640625 254.566406 L 1190.871094 253.179688 C 1193.320313 252.957031 1195.089844 252.667969 1196.191406 252.339844 L 1198.160156 251.664063 C 1198.328125 251.664063 1198.390625 251.769531 1198.359375 252.007813 L 1198.300781 252.25 C 1198.121094 253 1197.898438 254.082031 1197.679688 255.496094 C 1198.390625 254.910156 1199.179688 254.171875 1200.070313 253.273438 C 1200.730469 252.59375 1201.289063 252.171875 1201.738281 251.964844 C 1202.179688 251.769531 1202.730469 251.664063 1203.410156 251.664063 C 1203.800781 251.664063 1204.179688 251.722656 1204.550781 251.859375 C 1204.238281 253.046875 1203.898438 254.683594 1203.53125 256.746094 L 1202.671875 257.03125 C 1202.460938 256.566406 1202.21875 256.234375 1201.921875 256.054688 C 1201.621094 255.859375 1201.210938 255.769531 1200.691406 255.769531 C 1199.960938 255.769531 1199.320313 255.949219 1198.75 256.324219 C 1198.179688 256.699219 1197.769531 257.121094 1197.539063 257.601563 C 1197.390625 257.964844 1197.140625 259.179688 1196.789063 261.257813 C 1196.28125 264.292969 1196.03125 266.054688 1196.03125 266.566406 C 1196.03125 266.894531 1196.101563 267.121094 1196.25 267.242188 C 1196.511719 267.421875 1197.390625 267.558594 1198.910156 267.617188 L 1198.660156 269.121094 L 1196.660156 269.058594 C 1195.378906 269.015625 1194.28125 269 1193.328125 269 C 1192.460938 269 1191.421875 269.015625 1190.25 269.058594 Z M 1212.75 243.078125 C 1213.511719 243.078125 1214.128906 243.347656 1214.578125 243.886719 C 1215.03125 244.445313 1215.199219 245.105469 1215.058594 245.871094 C 1214.929688 246.640625 1214.550781 247.300781 1213.921875 247.84375 C 1213.289063 248.382813 1212.578125 248.65625 1211.800781 248.65625 C 1211.03125 248.65625 1210.421875 248.382813 1209.960938 247.84375 C 1209.511719 247.300781 1209.351563 246.640625 1209.480469 245.871094 C 1209.601563 245.105469 1209.988281 244.445313 1210.628906 243.886719 C 1211.261719 243.347656 1211.960938 243.078125 1212.75 243.078125 Z M 1203.390625 269.121094 L 1203.648438 267.617188 C 1205 267.570313 1205.800781 267.480469 1206.03125 267.359375 C 1206.25 267.257813 1206.449219 266.910156 1206.601563 266.355469 C 1206.820313 265.601563 1207.148438 263.949219 1207.570313 261.375 C 1207.75 260.265625 1207.921875 259.226563 1208.039063 258.277344 L 1208.339844 256.171875 C 1208.449219 255.480469 1208.449219 255.0625 1208.328125 254.894531 C 1208.210938 254.730469 1207.808594 254.640625 1207.171875 254.625 L 1205.828125 254.566406 L 1206.050781 253.179688 C 1208.96875 252.96875 1211.441406 252.460938 1213.441406 251.664063 L 1213.828125 252.023438 C 1213.269531 254.308594 1212.640625 257.632813 1211.898438 261.992188 C 1211.480469 264.535156 1211.269531 266.054688 1211.269531 266.578125 C 1211.269531 266.957031 1211.328125 267.179688 1211.480469 267.300781 C 1211.621094 267.40625 1212.390625 267.511719 1213.78125 267.617188 L 1213.539063 269.121094 C 1211.378906 269.046875 1209.710938 269 1208.539063 269 C 1207.898438 269 1206.191406 269.046875 1203.390625 269.121094 Z M 1214.871094 269.121094 L 1215.121094 267.617188 L 1216.25 267.527344 C 1216.988281 267.496094 1217.46875 267.375 1217.679688 267.179688 C 1217.890625 267 1218.101563 266.503906 1218.28125 265.691406 C 1218.660156 264.023438 1219.03125 262.007813 1219.421875 259.675781 L 1220.109375 255.363281 C 1218.910156 255.421875 1217.921875 255.480469 1217.140625 255.542969 L 1217.289063 254.59375 L 1219.148438 253.722656 L 1219.480469 253.574219 L 1219.679688 253.496094 L 1220.25 253.226563 L 1220.519531 251.527344 C 1220.761719 250.171875 1221.089844 249.195313 1221.5 248.59375 C 1221.898438 247.992188 1222.871094 247.089844 1224.398438 245.886719 C 1226.460938 244.265625 1227.738281 243.316406 1228.230469 243.046875 C 1229.078125 242.550781 1230.039063 242.308594 1231.121094 242.308594 C 1231.449219 242.308594 1231.800781 242.339844 1232.140625 242.398438 C 1232.488281 242.460938 1232.851563 242.566406 1233.210938 242.699219 C 1232.78125 244.097656 1232.359375 245.585938 1231.960938 247.152344 L 1231.238281 247.300781 C 1230.789063 246.789063 1230.339844 246.414063 1229.859375 246.171875 C 1229.390625 245.933594 1228.898438 245.796875 1228.398438 245.796875 C 1227.738281 245.796875 1227.210938 245.949219 1226.839844 246.25 C 1226.449219 246.535156 1226.160156 247.03125 1225.960938 247.722656 C 1225.769531 248.398438 1225.441406 250.234375 1224.929688 253.226563 L 1226.761719 253.226563 C 1227.75 253.226563 1228.789063 253.121094 1229.871094 252.941406 L 1230.019531 253.226563 C 1229.71875 253.917969 1229.441406 254.65625 1229.199219 255.453125 C 1228.511719 255.390625 1227.839844 255.363281 1227.210938 255.363281 L 1224.578125 255.363281 C 1223.710938 260.535156 1223.179688 263.917969 1223 265.496094 C 1222.878906 266.398438 1222.929688 266.941406 1223.121094 267.136719 C 1223.359375 267.375 1224.398438 267.558594 1226.238281 267.617188 L 1225.980469 269.121094 C 1224.238281 269.046875 1222.550781 269 1220.910156 269 C 1219.289063 269 1217.269531 269.046875 1214.871094 269.121094 Z M 1239.511719 269.136719 L 1239.769531 267.617188 C 1241.351563 267.558594 1242.25 267.453125 1242.488281 267.300781 C 1242.71875 267.164063 1242.910156 266.878906 1243.050781 266.460938 C 1243.289063 265.796875 1243.621094 264.144531 1244.050781 261.480469 L 1245.679688 251.664063 C 1246.21875 248.339844 1246.480469 246.535156 1246.398438 246.234375 C 1246.371094 246.054688 1246.289063 245.917969 1246.171875 245.828125 C 1245.960938 245.664063 1245.058594 245.542969 1243.46875 245.453125 L 1243.71875 243.933594 C 1246.101563 244.023438 1247.988281 244.070313 1249.390625 244.070313 C 1251.601563 244.070313 1253.628906 244.023438 1255.480469 243.933594 L 1255.230469 245.453125 C 1253.738281 245.542969 1252.851563 245.648438 1252.570313 245.769531 C 1252.398438 245.84375 1252.261719 245.949219 1252.171875 246.097656 C 1252.019531 246.324219 1251.808594 247.015625 1251.589844 248.171875 C 1251.210938 249.902344 1250.898438 251.648438 1250.601563 253.421875 L 1250.339844 254.910156 C 1251.589844 254.96875 1253.539063 255 1256.25 255 C 1258.660156 255 1260.429688 254.96875 1261.589844 254.910156 C 1262.25 251.015625 1262.640625 248.429688 1262.75 247.152344 C 1262.820313 246.472656 1262.761719 246.054688 1262.601563 245.886719 C 1262.351563 245.664063 1261.441406 245.511719 1259.859375 245.453125 L 1260.109375 243.933594 C 1263.078125 244.023438 1265.089844 244.070313 1266.140625 244.070313 C 1267.949219 244.070313 1269.871094 244.023438 1271.890625 243.933594 L 1271.628906 245.453125 C 1270.101563 245.542969 1269.179688 245.648438 1268.910156 245.78125 C 1268.761719 245.859375 1268.628906 245.964844 1268.539063 246.113281 C 1268.378906 246.367188 1268.128906 247.332031 1267.800781 249.03125 C 1267.289063 251.648438 1266.898438 253.769531 1266.628906 255.375 L 1265.378906 263.527344 C 1265.089844 265.363281 1264.96875 266.429688 1265 266.699219 C 1265.050781 266.984375 1265.148438 267.179688 1265.320313 267.285156 C 1265.480469 267.40625 1266.371094 267.511719 1267.929688 267.617188 L 1267.691406 269.136719 L 1265.710938 269.074219 C 1264.21875 269.03125 1263.050781 269 1262.191406 269 C 1260.410156 269 1258.328125 269.046875 1255.898438 269.136719 L 1256.160156 267.617188 C 1257.78125 267.558594 1258.71875 267.421875 1258.96875 267.226563 C 1259.210938 267.046875 1259.441406 266.566406 1259.621094 265.769531 C 1259.921875 264.414063 1260.460938 261.527344 1261.210938 257.121094 C 1259.890625 257.078125 1258.398438 257.046875 1256.761719 257.046875 C 1254.191406 257.046875 1251.921875 257.078125 1249.980469 257.121094 L 1249.78125 258.292969 C 1249.261719 261.4375 1248.910156 263.78125 1248.730469 265.363281 C 1248.609375 266.414063 1248.660156 267.03125 1248.851563 267.195313 C 1249.050781 267.375 1249.929688 267.511719 1251.53125 267.617188 L 1251.269531 269.136719 L 1249.171875 269.074219 C 1247.839844 269.03125 1246.640625 269 1245.589844 269 Z M 1286.839844 267.617188 L 1286.601563 269.121094 L 1285.230469 269.058594 C 1284.488281 269.015625 1283.769531 269 1283.050781 269 C 1281.921875 269 1280.851563 269.046875 1279.828125 269.121094 L 1279.679688 268.910156 L 1280.28125 266.429688 L 1276.050781 269.257813 C 1275.359375 269.40625 1274.75 269.480469 1274.230469 269.480469 C 1272.96875 269.480469 1272.050781 269.121094 1271.480469 268.355469 C 1270.910156 267.601563 1270.75 266.503906 1270.988281 265.046875 C 1271.289063 263.269531 1271.960938 262.007813 1273.03125 261.285156 C 1274.410156 260.324219 1277.261719 259.46875 1281.570313 258.714844 C 1281.78125 257.300781 1281.691406 256.277344 1281.351563 255.648438 C 1280.820313 254.773438 1279.890625 254.339844 1278.511719 254.339844 C 1278.191406 254.339844 1277.839844 254.367188 1277.5 254.445313 C 1277.140625 254.535156 1276.78125 254.65625 1276.378906 254.820313 L 1275.269531 256.746094 L 1274.078125 256.429688 L 1274.25 255.632813 L 1274.371094 254.835938 L 1274.460938 254.113281 C 1276.488281 252.984375 1277.921875 252.277344 1278.78125 251.976563 C 1279.390625 251.769531 1280.230469 251.664063 1281.269531 251.664063 C 1282.691406 251.664063 1283.78125 251.871094 1284.609375 252.292969 C 1285.421875 252.714844 1285.980469 253.300781 1286.261719 254.039063 C 1286.550781 254.761719 1286.570313 255.828125 1286.339844 257.226563 C 1286.230469 257.8125 1286.039063 258.863281 1285.738281 260.367188 C 1285.421875 261.933594 1285.199219 263.179688 1285.050781 264.113281 C 1284.789063 265.617188 1284.691406 266.535156 1284.71875 266.851563 C 1284.730469 267.046875 1284.820313 267.179688 1284.988281 267.300781 C 1285.148438 267.40625 1285.769531 267.511719 1286.839844 267.617188 Z M 1281.300781 260.265625 C 1279.121094 260.714844 1277.660156 261.210938 1276.960938 261.738281 C 1276.21875 262.277344 1275.78125 262.984375 1275.628906 263.886719 C 1275.511719 264.609375 1275.621094 265.195313 1275.960938 265.601563 C 1276.289063 266.039063 1276.78125 266.234375 1277.390625 266.234375 C 1278.339844 266.234375 1279.410156 265.707031 1280.578125 264.640625 Z M 1291.78125 269.480469 L 1290.96875 269.152344 C 1291.679688 266.25 1292.460938 262.25 1293.320313 257.136719 C 1293.691406 254.835938 1293.980469 253.046875 1294.160156 251.78125 L 1294.820313 247.167969 C 1294.941406 246.460938 1294.960938 245.992188 1294.878906 245.769531 C 1294.820313 245.617188 1294.691406 245.496094 1294.46875 245.453125 C 1294.339844 245.390625 1293.628906 245.347656 1292.378906 245.300781 L 1292.589844 244.007813 C 1293.261719 244.007813 1294.320313 243.871094 1295.808594 243.585938 C 1297.300781 243.300781 1298.410156 243.015625 1299.199219 242.714844 L 1300.019531 242.414063 C 1300.261719 242.414063 1300.339844 242.566406 1300.289063 242.835938 L 1299.921875 244.730469 C 1299.800781 245.378906 1299.199219 248.761719 1298.101563 254.910156 L 1300.578125 253.089844 C 1301.359375 252.519531 1302.039063 252.144531 1302.609375 251.949219 C 1303.199219 251.753906 1303.859375 251.664063 1304.628906 251.664063 C 1306.640625 251.664063 1308.140625 252.292969 1309.148438 253.574219 C 1310.140625 254.851563 1310.46875 256.535156 1310.128906 258.609375 C 1309.960938 259.632813 1309.621094 260.667969 1309.089844 261.753906 C 1308.578125 262.851563 1308.019531 263.722656 1307.410156 264.414063 C 1306.789063 265.105469 1306.050781 265.707031 1305.179688 266.234375 C 1304.078125 266.863281 1303.140625 267.453125 1302.351563 267.976563 C 1301.421875 268.609375 1300.660156 269 1300.070313 269.195313 C 1299.46875 269.390625 1298.78125 269.480469 1297.949219 269.480469 C 1297.148438 269.480469 1296.410156 269.390625 1295.769531 269.179688 C 1295.089844 268.96875 1294.378906 268.609375 1293.589844 268.070313 C 1293.269531 268.277344 1292.671875 268.761719 1291.78125 269.480469 Z M 1297.800781 256.777344 L 1296.410156 265.015625 C 1296.75 265.675781 1297.199219 266.171875 1297.769531 266.503906 C 1298.339844 266.835938 1299.019531 267.015625 1299.800781 267.015625 C 1301.078125 267.015625 1302.199219 266.488281 1303.171875 265.46875 C 1304.128906 264.445313 1304.78125 262.894531 1305.140625 260.804688 C 1305.449219 258.851563 1305.300781 257.375 1304.660156 256.367188 C 1304.011719 255.375 1303.050781 254.867188 1301.738281 254.867188 C 1301.050781 254.867188 1300.371094 255.03125 1299.710938 255.347656 C 1299.050781 255.664063 1298.410156 256.144531 1297.800781 256.777344 Z M 1320.589844 243.078125 C 1321.359375 243.078125 1321.980469 243.347656 1322.429688 243.886719 C 1322.878906 244.445313 1323.050781 245.105469 1322.910156 245.871094 C 1322.789063 246.640625 1322.410156 247.300781 1321.769531 247.84375 C 1321.140625 248.382813 1320.429688 248.65625 1319.648438 248.65625 C 1318.878906 248.65625 1318.28125 248.382813 1317.808594 247.84375 C 1317.359375 247.300781 1317.210938 246.640625 1317.328125 245.871094 C 1317.46875 245.105469 1317.839844 244.445313 1318.46875 243.886719 C 1319.121094 243.347656 1319.828125 243.078125 1320.589844 243.078125 Z M 1311.261719 269.121094 L 1311.5 267.617188 C 1312.851563 267.570313 1313.660156 267.480469 1313.890625 267.359375 C 1314.109375 267.257813 1314.289063 266.910156 1314.460938 266.355469 C 1314.671875 265.601563 1315 263.949219 1315.421875 261.375 C 1315.621094 260.265625 1315.769531 259.226563 1315.890625 258.277344 L 1316.191406 256.171875 C 1316.308594 255.480469 1316.289063 255.0625 1316.171875 254.894531 C 1316.050781 254.730469 1315.660156 254.640625 1315.019531 254.625 L 1313.679688 254.566406 L 1313.898438 253.179688 C 1316.820313 252.96875 1319.289063 252.460938 1321.289063 251.664063 L 1321.679688 252.023438 C 1321.140625 254.308594 1320.488281 257.632813 1319.769531 261.992188 C 1319.351563 264.535156 1319.140625 266.054688 1319.121094 266.578125 C 1319.121094 266.957031 1319.179688 267.179688 1319.328125 267.300781 C 1319.480469 267.40625 1320.25 267.511719 1321.648438 267.617188 L 1321.390625 269.121094 C 1319.238281 269.046875 1317.570313 269 1316.378906 269 C 1315.75 269 1314.039063 269.046875 1311.261719 269.121094 Z M 1326.730469 269.480469 L 1325.929688 269.152344 C 1326.640625 266.25 1327.421875 262.25 1328.28125 257.136719 C 1328.648438 254.835938 1328.941406 253.046875 1329.109375 251.78125 L 1329.78125 247.167969 C 1329.890625 246.460938 1329.898438 245.992188 1329.828125 245.769531 C 1329.769531 245.617188 1329.628906 245.496094 1329.441406 245.453125 C 1329.289063 245.390625 1328.589844 245.347656 1327.351563 245.300781 L 1327.558594 244.007813 C 1328.21875 244.007813 1329.289063 243.871094 1330.761719 243.585938 C 1332.25 243.300781 1333.378906 243.015625 1334.140625 242.714844 L 1334.988281 242.414063 C 1335.210938 242.414063 1335.300781 242.566406 1335.261719 242.835938 L 1334.878906 244.730469 C 1334.738281 245.378906 1334.140625 248.761719 1333.058594 254.910156 L 1335.539063 253.089844 C 1336.308594 252.519531 1337 252.144531 1337.570313 251.949219 C 1338.140625 251.753906 1338.808594 251.664063 1339.589844 251.664063 C 1341.601563 251.664063 1343.109375 252.292969 1344.101563 253.574219 C 1345.109375 254.851563 1345.441406 256.535156 1345.078125 258.609375 C 1344.910156 259.632813 1344.578125 260.667969 1344.050781 261.753906 C 1343.539063 262.851563 1342.988281 263.722656 1342.371094 264.414063 C 1341.75 265.105469 1341.019531 265.707031 1340.128906 266.234375 C 1339.03125 266.863281 1338.078125 267.453125 1337.320313 267.976563 C 1336.378906 268.609375 1335.621094 269 1335.019531 269.195313 C 1334.429688 269.390625 1333.71875 269.480469 1332.910156 269.480469 C 1332.109375 269.480469 1331.378906 269.390625 1330.710938 269.179688 C 1330.050781 268.96875 1329.328125 268.609375 1328.550781 268.070313 C 1328.230469 268.277344 1327.621094 268.761719 1326.730469 269.480469 Z M 1332.738281 256.777344 L 1331.378906 265.015625 C 1331.710938 265.675781 1332.160156 266.171875 1332.730469 266.503906 C 1333.289063 266.835938 1333.960938 267.015625 1334.761719 267.015625 C 1336.039063 267.015625 1337.171875 266.488281 1338.128906 265.46875 C 1339.078125 264.445313 1339.738281 262.894531 1340.078125 260.804688 C 1340.410156 258.851563 1340.261719 257.375 1339.621094 256.367188 C 1338.96875 255.375 1338.011719 254.867188 1336.699219 254.867188 C 1335.988281 254.867188 1335.328125 255.03125 1334.671875 255.347656 C 1334.011719 255.664063 1333.378906 256.144531 1332.738281 256.777344 Z M 1357.03125 269.136719 L 1357.171875 268.277344 C 1357.921875 267.871094 1358.5 267.511719 1358.929688 267.164063 C 1359.351563 265.511719 1360.019531 261.871094 1360.960938 256.21875 C 1361.648438 252.128906 1362.070313 249.226563 1362.230469 247.527344 C 1362.320313 246.609375 1362.289063 246.070313 1362.128906 245.902344 C 1361.898438 245.675781 1361.019531 245.511719 1359.46875 245.453125 L 1359.71875 243.933594 L 1363.171875 244.007813 L 1365.78125 244.070313 C 1366.589844 244.070313 1367.78125 244.039063 1369.359375 243.976563 C 1370.878906 243.902344 1371.980469 243.871094 1372.640625 243.871094 C 1375.300781 243.871094 1377.140625 244.324219 1378.128906 245.226563 C 1379.140625 246.113281 1379.5 247.332031 1379.238281 248.878906 C 1378.96875 250.472656 1378.191406 251.769531 1376.878906 252.777344 C 1375.589844 253.78125 1373.859375 254.488281 1371.71875 254.925781 L 1371.691406 255.074219 C 1373.78125 255.285156 1375.230469 255.601563 1376.019531 256.039063 C 1376.800781 256.472656 1377.390625 257.136719 1377.769531 258.054688 C 1378.140625 258.957031 1378.230469 259.992188 1378.039063 261.152344 C 1377.800781 262.578125 1377.140625 263.933594 1376.070313 265.195313 C 1374.988281 266.460938 1373.679688 267.4375 1372.128906 268.097656 C 1370.589844 268.773438 1368.519531 269.121094 1365.921875 269.121094 C 1365.410156 269.121094 1364.640625 269.089844 1363.601563 269.058594 C 1362.648438 269.015625 1361.871094 269 1361.269531 269 C 1360.578125 269 1359.179688 269.046875 1357.03125 269.136719 Z M 1366.371094 254.308594 L 1367.320313 254.308594 C 1369.328125 254.308594 1370.820313 253.949219 1371.75 253.226563 C 1372.699219 252.488281 1373.300781 251.347656 1373.558594 249.78125 C 1373.78125 248.429688 1373.628906 247.421875 1373.058594 246.777344 C 1372.5 246.128906 1371.46875 245.796875 1369.949219 245.796875 C 1369.390625 245.796875 1368.699219 245.859375 1367.859375 245.949219 C 1367.179688 249.632813 1366.761719 251.871094 1366.621094 252.699219 Z M 1364.28125 267.074219 C 1364.941406 267.257813 1365.589844 267.347656 1366.191406 267.347656 C 1367.898438 267.347656 1369.289063 266.863281 1370.351563 265.886719 C 1371.441406 264.910156 1372.128906 263.480469 1372.441406 261.585938 C 1372.640625 260.355469 1372.589844 259.347656 1372.320313 258.566406 C 1372.039063 257.769531 1371.570313 257.195313 1370.910156 256.804688 C 1370.25 256.429688 1369.238281 256.234375 1367.898438 256.234375 L 1366.078125 256.25 L 1366.011719 256.714844 L 1365.199219 261.375 L 1364.441406 266.070313 Z M 1364.28125 267.074219 "/>
<path style=" stroke:none;fill-rule:evenodd;fill:rgb(0%,61.914063%,87.889099%);fill-opacity:1;" d="M 1396.761719 267.617188 L 1396.488281 269.105469 L 1395.128906 269.058594 C 1394.398438 269.015625 1393.671875 268.996094 1392.949219 268.996094 C 1391.828125 268.996094 1390.75 269.027344 1389.738281 269.105469 L 1389.578125 268.90625 L 1390.191406 266.425781 L 1385.960938 269.246094 C 1385.261719 269.402344 1384.660156 269.476563 1384.140625 269.476563 C 1382.871094 269.476563 1381.941406 269.105469 1381.390625 268.363281 C 1380.808594 267.589844 1380.660156 266.503906 1380.890625 265.046875 C 1381.199219 263.265625 1381.878906 262.007813 1382.941406 261.28125 C 1384.328125 260.320313 1387.171875 259.46875 1391.46875 258.710938 C 1391.679688 257.296875 1391.609375 256.277344 1391.238281 255.640625 C 1390.730469 254.773438 1389.78125 254.324219 1388.421875 254.324219 C 1388.078125 254.324219 1387.75 254.371094 1387.398438 254.449219 C 1387.039063 254.523438 1386.671875 254.648438 1386.300781 254.820313 L 1385.171875 256.742188 L 1383.988281 256.429688 L 1384.160156 255.625 L 1384.269531 254.835938 L 1384.359375 254.105469 C 1386.390625 252.976563 1387.828125 252.261719 1388.679688 251.984375 C 1389.300781 251.75 1390.140625 251.65625 1391.160156 251.65625 C 1392.589844 251.65625 1393.691406 251.875 1394.511719 252.292969 C 1395.328125 252.710938 1395.871094 253.285156 1396.171875 254.027344 C 1396.449219 254.757813 1396.480469 255.828125 1396.25 257.222656 C 1396.140625 257.808594 1395.941406 258.847656 1395.640625 260.367188 C 1395.328125 261.917969 1395.101563 263.171875 1394.941406 264.117188 C 1394.699219 265.605469 1394.589844 266.519531 1394.621094 266.84375 C 1394.640625 267.046875 1394.730469 267.183594 1394.898438 267.292969 C 1395.050781 267.402344 1395.671875 267.511719 1396.761719 267.617188 Z M 1391.210938 260.257813 C 1389.03125 260.707031 1387.570313 261.203125 1386.859375 261.730469 C 1386.128906 262.273438 1385.691406 262.984375 1385.539063 263.882813 C 1385.429688 264.613281 1385.519531 265.1875 1385.859375 265.605469 C 1386.210938 266.023438 1386.691406 266.238281 1387.308594 266.238281 C 1388.25 266.238281 1389.300781 265.699219 1390.480469 264.644531 Z M 1398.460938 269.105469 L 1398.710938 267.617188 C 1400.03125 267.542969 1400.769531 267.449219 1400.96875 267.292969 C 1401.160156 267.167969 1401.308594 266.84375 1401.421875 266.378906 C 1401.699219 265.171875 1402.089844 263.03125 1402.601563 259.980469 C 1402.859375 258.476563 1403.050781 257.175781 1403.199219 256.089844 C 1403.28125 255.421875 1403.300781 255.019531 1403.25 254.898438 C 1403.199219 254.820313 1403.128906 254.742188 1403 254.695313 C 1402.878906 254.632813 1402.171875 254.601563 1400.878906 254.570313 L 1401.109375 253.175781 C 1401.761719 253.175781 1402.800781 253.039063 1404.210938 252.773438 C 1405.621094 252.496094 1406.828125 252.167969 1407.839844 251.8125 L 1408.328125 251.65625 C 1408.5 251.65625 1408.570313 251.78125 1408.519531 252.0625 L 1408.46875 252.230469 C 1408.378906 252.558594 1408.230469 253.425781 1407.988281 254.820313 L 1411.171875 252.480469 C 1411.558594 252.183594 1411.941406 251.984375 1412.351563 251.875 C 1412.890625 251.71875 1413.539063 251.65625 1414.300781 251.65625 C 1415.570313 251.65625 1416.558594 251.875 1417.308594 252.308594 C 1418.03125 252.742188 1418.53125 253.347656 1418.78125 254.121094 C 1419.03125 254.898438 1419.011719 256.089844 1418.75 257.71875 C 1418.621094 258.445313 1418.46875 259.265625 1418.28125 260.210938 C 1417.890625 262.164063 1417.578125 263.839844 1417.351563 265.246094 C 1417.210938 266.054688 1417.179688 266.597656 1417.261719 266.921875 C 1417.320313 267.121094 1417.429688 267.277344 1417.601563 267.339844 C 1417.761719 267.417969 1418.410156 267.511719 1419.519531 267.617188 L 1419.269531 269.105469 L 1417.070313 269.027344 L 1415.660156 268.996094 L 1411.941406 269.105469 L 1411.789063 268.875 C 1412.46875 266.597656 1413.03125 264.273438 1413.421875 261.871094 C 1413.929688 258.832031 1414.050781 256.957031 1413.800781 256.246094 C 1413.480469 255.347656 1412.671875 254.882813 1411.421875 254.882813 C 1410.601563 254.882813 1409.851563 255.097656 1409.191406 255.5 C 1408.519531 255.917969 1408.050781 256.351563 1407.789063 256.835938 C 1407.679688 257.019531 1407.539063 257.625 1407.371094 258.648438 C 1406.640625 262.96875 1406.261719 265.449219 1406.179688 266.085938 C 1406.121094 266.703125 1406.148438 267.09375 1406.300781 267.230469 C 1406.488281 267.417969 1407.261719 267.542969 1408.640625 267.617188 L 1408.398438 269.105469 C 1406.320313 269.027344 1404.570313 268.996094 1403.128906 268.996094 C 1402.269531 268.996094 1400.730469 269.027344 1398.460938 269.105469 Z M 1420.898438 269.105469 L 1421.148438 267.617188 C 1422.449219 267.574219 1423.210938 267.480469 1423.441406 267.371094 C 1423.550781 267.292969 1423.660156 267.183594 1423.738281 267.046875 C 1423.878906 266.78125 1424.140625 265.574219 1424.539063 263.433594 C 1424.929688 261.3125 1425.320313 259.082031 1425.699219 256.773438 C 1426.011719 254.898438 1426.390625 252.511719 1426.820313 249.566406 C 1427.128906 247.445313 1427.269531 246.265625 1427.238281 246.019531 C 1427.21875 245.785156 1427.109375 245.613281 1426.941406 245.507813 C 1426.769531 245.398438 1426.078125 245.320313 1424.878906 245.304688 L 1425.078125 244.003906 C 1426.730469 243.847656 1428.058594 243.660156 1429.101563 243.445313 C 1430.121094 243.214844 1431.101563 242.917969 1431.980469 242.5625 C 1432.230469 242.453125 1432.378906 242.40625 1432.488281 242.40625 C 1432.660156 242.40625 1432.71875 242.5625 1432.679688 242.886719 L 1432.511719 243.660156 C 1432.320313 244.546875 1431.699219 247.921875 1430.691406 253.78125 L 1429.808594 258.800781 L 1429.691406 259.792969 C 1432.570313 257.640625 1435.621094 255.066406 1438.808594 252.03125 C 1439.648438 252.09375 1440.410156 252.121094 1441.078125 252.121094 C 1441.878906 252.121094 1442.730469 252.09375 1443.648438 252.03125 L 1443.398438 253.503906 C 1442.050781 253.578125 1441.25 253.65625 1440.949219 253.75 C 1440.660156 253.84375 1440.21875 254.089844 1439.601563 254.507813 C 1439 254.925781 1437.28125 256.230469 1434.441406 258.414063 L 1436.539063 261.359375 C 1438.949219 264.722656 1440.378906 266.628906 1440.839844 267.078125 C 1441.140625 267.371094 1441.601563 267.558594 1442.210938 267.617188 L 1441.960938 269.105469 C 1440.628906 269.027344 1439.398438 268.996094 1438.289063 268.996094 C 1437.398438 268.996094 1436.539063 269.027344 1435.679688 269.105469 C 1434.75 267.542969 1433.808594 266.085938 1432.851563 264.753906 C 1431.550781 262.90625 1430.449219 261.496094 1429.578125 260.507813 L 1429.078125 263.402344 C 1428.800781 265.078125 1428.699219 266.210938 1428.738281 266.8125 C 1428.761719 267.078125 1428.851563 267.246094 1429.011719 267.355469 C 1429.160156 267.464844 1429.890625 267.542969 1431.140625 267.617188 L 1430.898438 269.105469 C 1428.601563 269.027344 1427.070313 268.996094 1426.289063 268.996094 C 1425.53125 268.996094 1423.738281 269.027344 1420.898438 269.105469 Z M 1442.101563 276.375 C 1443.421875 274.902344 1444.449219 273.507813 1445.179688 272.222656 C 1445.929688 270.949219 1446.550781 269.449219 1447.070313 267.710938 C 1447.601563 265.976563 1448.171875 263.34375 1448.75 259.839844 C 1449.351563 256.261719 1449.660156 253.625 1449.710938 251.9375 C 1449.75 250.230469 1449.628906 248.746094 1449.320313 247.457031 C 1449.011719 246.171875 1448.441406 244.792969 1447.621094 243.304688 L 1448.71875 242.191406 C 1450.28125 243.675781 1451.488281 245.289063 1452.339844 247.039063 C 1453.191406 248.792969 1453.75 250.714844 1454 252.820313 C 1454.25 254.925781 1454.160156 257.269531 1453.71875 259.839844 C 1453.300781 262.414063 1452.609375 264.753906 1451.660156 266.859375 C 1450.699219 268.96875 1449.511719 270.90625 1448.070313 272.640625 C 1446.621094 274.390625 1444.890625 276.003906 1442.828125 277.488281 Z M 1442.101563 276.375 "/>
<g clip-path="url(#clip1)" clip-rule="nonzero">
<path style=" stroke:none;fill-rule:evenodd;fill:rgb(0%,61.914063%,87.889099%);fill-opacity:1;" d="M 992.070313 215.054688 L 992.867188 209.675781 C 997.089844 207.074219 1000.320313 204.734375 1002.648438 202.601563 C 1005.019531 192.128906 1008.828125 168.917969 1014.140625 133.007813 C 1017.980469 107.007813 1020.359375 88.585938 1021.308594 77.800781 C 1021.828125 71.953125 1021.648438 68.527344 1020.699219 67.515625 C 1019.460938 66.003906 1014.53125 65.035156 1005.898438 64.566406 L 1007.308594 54.980469 L 1026.53125 55.449219 L 1041.210938 55.808594 C 1045.699219 55.808594 1052.339844 55.605469 1061.179688 55.214844 C 1069.71875 54.824219 1075.859375 54.640625 1079.558594 54.640625 C 1094.398438 54.640625 1104.640625 57.476563 1110.199219 63.164063 C 1115.808594 68.808594 1117.851563 76.554688 1116.398438 86.371094 C 1114.910156 96.488281 1110.539063 104.703125 1103.21875 111.125 C 1095.921875 117.515625 1086.269531 122.066406 1074.289063 124.792969 L 1074.148438 125.730469 C 1085.890625 127.101563 1093.941406 129.128906 1098.320313 131.886719 C 1102.75 134.613281 1106.011719 138.851563 1108.101563 144.652344 C 1110.179688 150.417969 1110.679688 156.996094 1109.589844 164.398438 C 1108.269531 173.4375 1104.558594 181.996094 1098.539063 190.054688 C 1092.480469 198.113281 1085.171875 204.269531 1076.5 208.554688 C 1067.898438 212.792969 1056.300781 214.945313 1041.78125 214.945313 C 1038.910156 214.945313 1034.609375 214.820313 1028.871094 214.585938 C 1023.570313 214.351563 1019.191406 214.242188 1015.808594 214.242188 C 1011.96875 214.242188 1004.089844 214.507813 992.070313 215.054688 Z M 1044.429688 120.945313 L 1049.679688 120.945313 C 1060.980469 120.945313 1069.289063 118.605469 1074.519531 113.976563 C 1079.808594 109.347656 1083.171875 102.054688 1084.640625 92.171875 C 1085.921875 83.519531 1085 77.128906 1081.878906 73.015625 C 1078.78125 68.914063 1072.980469 66.859375 1064.488281 66.859375 C 1061.339844 66.859375 1057.460938 67.171875 1052.808594 67.761719 C 1048.949219 91.128906 1046.621094 105.402344 1045.839844 110.671875 Z M 1032.660156 202.054688 C 1036.351563 203.175781 1039.941406 203.722656 1043.328125 203.722656 C 1052.859375 203.722656 1060.601563 200.652344 1066.601563 194.464844 C 1072.621094 188.261719 1076.5 179.160156 1078.28125 167.125 C 1079.429688 159.300781 1079.230469 152.878906 1077.671875 147.894531 C 1076.070313 142.90625 1073.460938 139.210938 1069.738281 136.796875 C 1066.058594 134.332031 1060.480469 133.132813 1052.980469 133.132813 L 1042.820313 133.242188 L 1042.378906 136.203125 L 1037.800781 165.753906 L 1033.589844 195.632813 Z M 1211.648438 205.4375 L 1210.25 214.945313 L 1202.601563 214.585938 C 1198.53125 214.351563 1194.460938 214.242188 1190.378906 214.242188 C 1184.109375 214.242188 1178.109375 214.476563 1172.421875 214.945313 L 1171.589844 213.652344 L 1174.949219 197.925781 L 1151.289063 215.832031 C 1147.398438 216.800781 1144.011719 217.316406 1141.140625 217.316406 C 1134.03125 217.316406 1128.898438 214.945313 1125.738281 210.144531 C 1122.589844 205.328125 1121.660156 198.347656 1123.03125 189.117188 C 1124.699219 177.785156 1128.511719 169.808594 1134.480469 165.179688 C 1142.230469 159.097656 1158.109375 153.644531 1182.191406 148.859375 C 1183.378906 139.910156 1182.96875 133.398438 1180.960938 129.359375 C 1178.078125 123.828125 1172.808594 121.023438 1165.128906 121.023438 C 1163.320313 121.023438 1161.421875 121.285156 1159.441406 121.769531 C 1157.441406 122.269531 1155.421875 123.046875 1153.300781 124.140625 L 1147 136.328125 L 1140.328125 134.378906 L 1141.289063 129.234375 L 1141.929688 124.21875 L 1142.511719 119.664063 C 1153.828125 112.449219 1161.851563 107.945313 1166.621094 106.105469 C 1170.109375 104.703125 1174.769531 104.046875 1180.558594 104.046875 C 1188.480469 104.046875 1194.679688 105.402344 1199.25 108.101563 C 1203.800781 110.78125 1206.878906 114.445313 1208.460938 119.121094 C 1210.058594 123.75 1210.191406 130.515625 1208.878906 139.398438 C 1208.328125 143.140625 1207.210938 149.792969 1205.511719 159.378906 C 1203.78125 169.261719 1202.5 177.210938 1201.609375 183.210938 C 1200.210938 192.703125 1199.558594 198.503906 1199.738281 200.527344 C 1199.839844 201.773438 1200.339844 202.710938 1201.269531 203.410156 C 1202.191406 204.082031 1205.648438 204.78125 1211.648438 205.4375 Z M 1180.738281 158.679688 C 1168.519531 161.5625 1160.390625 164.710938 1156.351563 168.09375 C 1152.300781 171.492188 1149.871094 176.042969 1149.03125 181.730469 C 1148.339844 186.359375 1148.929688 190.023438 1150.800781 192.671875 C 1152.699219 195.351563 1155.378906 196.679688 1158.851563 196.679688 C 1164.128906 196.679688 1170.070313 193.296875 1176.628906 186.515625 Z M 1218.710938 214.945313 L 1220.121094 205.4375 C 1227.46875 205.015625 1231.679688 204.347656 1232.738281 203.457031 C 1233.828125 202.601563 1234.671875 200.605469 1235.328125 197.566406 C 1236.871094 189.898438 1239.078125 176.355469 1241.941406 156.964844 C 1243.351563 147.378906 1244.480469 139.132813 1245.289063 132.242188 C 1245.789063 127.957031 1245.878906 125.464844 1245.609375 124.683594 C 1245.371094 124.09375 1244.878906 123.625 1244.210938 123.3125 C 1243.488281 123 1239.570313 122.734375 1232.371094 122.535156 L 1233.660156 113.742188 C 1237.261719 113.742188 1243.039063 112.839844 1250.980469 111.125 C 1258.878906 109.378906 1265.628906 107.351563 1271.210938 105.0625 L 1274.058594 104.046875 C 1274.980469 104.046875 1275.339844 104.90625 1275.089844 106.652344 L 1274.820313 107.710938 C 1274.308594 109.800781 1273.390625 115.300781 1272.078125 124.140625 L 1289.828125 109.300781 C 1292.058594 107.398438 1294.238281 106.105469 1296.441406 105.402344 C 1299.511719 104.515625 1303.140625 104.046875 1307.371094 104.046875 C 1314.460938 104.046875 1320.089844 105.449219 1324.199219 108.210938 C 1328.300781 110.96875 1331.03125 114.835938 1332.429688 119.742188 C 1333.789063 124.636719 1333.71875 132.273438 1332.199219 142.59375 C 1331.53125 147.144531 1330.640625 152.445313 1329.550781 158.445313 C 1327.378906 170.789063 1325.679688 181.417969 1324.339844 190.410156 C 1323.589844 195.507813 1323.421875 199.015625 1323.871094 200.996094 C 1324.191406 202.367188 1324.808594 203.300781 1325.730469 203.722656 C 1326.621094 204.191406 1330.199219 204.78125 1336.480469 205.4375 L 1335.078125 214.945313 L 1322.78125 214.476563 L 1314.898438 214.242188 L 1294.089844 214.945313 L 1293.21875 213.417969 C 1297.101563 198.96875 1300.148438 184.179688 1302.398438 168.949219 C 1305.25 149.636719 1305.980469 137.730469 1304.558594 133.242188 C 1302.738281 127.441406 1298.300781 124.558594 1291.210938 124.558594 C 1286.648438 124.558594 1282.511719 125.882813 1278.769531 128.503906 C 1275.03125 131.152344 1272.449219 133.910156 1270.988281 136.902344 C 1270.371094 138.121094 1269.558594 141.96875 1268.589844 148.4375 C 1264.519531 175.964844 1262.308594 191.691406 1261.921875 195.710938 C 1261.53125 199.671875 1261.71875 202.132813 1262.539063 203.070313 C 1263.570313 204.191406 1267.929688 205.015625 1275.621094 205.4375 L 1274.21875 214.945313 C 1262.628906 214.476563 1252.828125 214.242188 1244.820313 214.242188 C 1240.050781 214.242188 1231.351563 214.476563 1218.710938 214.945313 Z M 1341.699219 214.945313 L 1343.121094 205.4375 C 1350.320313 205.171875 1354.578125 204.628906 1355.890625 203.847656 C 1356.539063 203.410156 1357.121094 202.710938 1357.601563 201.820313 C 1358.351563 200.136719 1359.859375 192.515625 1362.078125 178.925781 C 1364.289063 165.378906 1366.46875 151.242188 1368.648438 136.5625 C 1370.398438 124.683594 1372.488281 109.457031 1374.898438 90.800781 C 1376.628906 77.253906 1377.429688 69.773438 1377.269531 68.261719 C 1377.148438 66.78125 1376.589844 65.691406 1375.609375 64.957031 C 1374.640625 64.257813 1370.800781 63.820313 1364.070313 63.664063 L 1365.289063 55.449219 C 1374.371094 54.4375 1381.859375 53.269531 1387.640625 51.863281 C 1393.441406 50.429688 1398.828125 48.5625 1403.800781 46.222656 C 1405.160156 45.597656 1406.089844 45.285156 1406.640625 45.285156 C 1407.640625 45.285156 1407.988281 46.300781 1407.699219 48.359375 L 1406.761719 53.269531 C 1405.660156 58.910156 1402.238281 80.339844 1396.550781 117.515625 L 1391.628906 149.449219 L 1390.898438 155.71875 C 1407.03125 142.09375 1424.050781 125.699219 1441.96875 106.417969 C 1446.648438 106.808594 1450.871094 107.007813 1454.640625 107.007813 C 1459.101563 107.007813 1463.890625 106.808594 1468.980469 106.417969 L 1467.601563 115.800781 C 1460.101563 116.238281 1455.53125 116.78125 1453.910156 117.328125 C 1452.269531 117.902344 1449.78125 119.492188 1446.371094 122.191406 C 1442.949219 124.839844 1433.339844 133.132813 1417.5 147.035156 L 1429.179688 165.644531 C 1442.628906 187.09375 1450.640625 199.203125 1453.238281 202.054688 C 1454.878906 203.925781 1457.449219 205.09375 1460.859375 205.4375 L 1459.460938 214.945313 C 1452.03125 214.476563 1445.171875 214.242188 1438.890625 214.242188 C 1433.988281 214.242188 1429.128906 214.476563 1424.328125 214.945313 C 1419.148438 204.96875 1413.921875 195.710938 1408.550781 187.21875 C 1401.230469 175.574219 1395.121094 166.582031 1390.230469 160.269531 L 1387.511719 178.644531 C 1385.941406 189.273438 1385.28125 196.523438 1385.5 200.339844 C 1385.601563 202.007813 1386.109375 203.148438 1387.011719 203.800781 C 1387.898438 204.457031 1391.910156 205.015625 1399 205.4375 L 1397.601563 214.945313 C 1384.75 214.476563 1376.148438 214.242188 1371.828125 214.242188 C 1367.578125 214.242188 1357.570313 214.476563 1341.699219 214.945313 Z M 1341.699219 214.945313 "/>
</g>
<path style=" stroke:none;fill-rule:evenodd;fill:rgb(89.0625%,0%,47.459412%);fill-opacity:1;" d="M 967.1875 17.316406 C 958.332031 36.71875 950.300781 56.253906 945.660156 77.328125 C 941.835938 77.117188 939.984375 77.578125 936.15625 77.355469 C 937.832031 67.523438 940.722656 56.617188 944.925781 48.472656 C 912.664063 20.070313 864.996094 20.65625 830.925781 45.472656 C 821.171875 52.578125 812.515625 61.507813 806.046875 71.539063 C 779.292969 112.964844 801.859375 150.988281 840.308594 175.152344 C 862.195313 188.898438 885.523438 202.359375 880.847656 214.292969 C 871.390625 203.421875 859.480469 195.316406 847.113281 187.925781 C 829.277344 177.242188 809.636719 168.210938 796.066406 151.925781 C 760.257813 108.910156 783.285156 40.855469 828.898438 15.527344 C 850.351563 3.621094 876.394531 -0.0078125 903.972656 1.757813 C 924.222656 3.046875 945.234375 7.9375 967.1875 17.316406 Z M 967.1875 17.316406 "/>
<path style=" stroke:none;fill-rule:evenodd;fill:rgb(0%,61.914063%,87.889099%);fill-opacity:1;" d="M 754.929688 281.488281 C 763.992188 262.09375 772.210938 242.550781 776.960938 221.46875 C 780.863281 221.695313 782.761719 221.21875 786.675781 221.441406 C 784.949219 231.273438 782.011719 242.1875 777.699219 250.328125 C 810.710938 278.738281 859.464844 278.136719 894.3125 253.328125 C 904.292969 246.226563 913.144531 237.296875 919.761719 227.269531 C 947.117188 185.84375 924.050781 147.816406 884.722656 123.648438 C 862.328125 109.90625 838.46875 96.4375 843.257813 84.507813 C 852.925781 95.386719 865.105469 103.476563 877.757813 110.878906 C 896.003906 121.558594 916.097656 130.585938 929.964844 146.878906 C 966.601563 189.894531 943.054688 257.945313 896.390625 283.265625 C 874.445313 295.179688 847.808594 298.808594 819.601563 297.042969 C 798.882813 295.757813 777.398438 290.867188 754.929688 281.488281 Z M 754.929688 281.488281 "/>
</g>
</svg>
